<svg width="1147" height="1082" viewBox="0 0 1147 1082" fill="none" xmlns="http://www.w3.org/2000/svg">
<path d="M546.478 53.6567C737.795 -56.8004 982.432 8.74977 1092.89 200.067C1203.34 391.385 1137.79 636.021 946.479 746.478L600.068 946.479C408.751 1056.93 164.114 991.386 53.6567 800.068C-56.8004 608.751 8.74977 364.115 200.067 253.657L546.478 53.6567Z" fill="#FBBF24"/>
<g filter="url(#filter0_dd_303_118)">
<g clip-path="url(#clip0_303_118)">
<path d="M73 142H493V1042H73V142Z" fill="#E0F2FE"/>
<path d="M380.2 781.6C380.2 813.412 354.412 839.2 322.6 839.2C290.788 839.2 265 813.412 265 781.6C265 749.788 290.788 724 322.6 724C354.412 724 380.2 749.788 380.2 781.6Z" fill="white"/>
<path fill-rule="evenodd" clip-rule="evenodd" d="M322.6 835.6C352.423 835.6 376.6 811.423 376.6 781.6C376.6 751.777 352.423 727.6 322.6 727.6C292.777 727.6 268.6 751.777 268.6 781.6C268.6 811.423 292.777 835.6 322.6 835.6ZM322.6 839.2C354.412 839.2 380.2 813.412 380.2 781.6C380.2 749.788 354.412 724 322.6 724C290.788 724 265 749.788 265 781.6C265 813.412 290.788 839.2 322.6 839.2Z" fill="#BAE6FD"/>
<path d="M533.8 781.6C533.8 813.412 508.012 839.2 476.2 839.2C444.388 839.2 418.6 813.412 418.6 781.6C418.6 749.788 444.388 724 476.2 724C508.012 724 533.8 749.788 533.8 781.6Z" fill="#BAE6FD"/>
<path fill-rule="evenodd" clip-rule="evenodd" d="M476.2 835.6C506.023 835.6 530.2 811.423 530.2 781.6C530.2 751.777 506.023 727.6 476.2 727.6C446.377 727.6 422.2 751.777 422.2 781.6C422.2 811.423 446.377 835.6 476.2 835.6ZM476.2 839.2C508.012 839.2 533.8 813.412 533.8 781.6C533.8 749.788 508.012 724 476.2 724C444.388 724 418.6 749.788 418.6 781.6C418.6 813.412 444.388 839.2 476.2 839.2Z" fill="white"/>
<path d="M226.6 781.6C226.6 813.412 200.812 839.2 169 839.2C137.188 839.2 111.4 813.412 111.4 781.6C111.4 749.788 137.188 724 169 724C200.812 724 226.6 749.788 226.6 781.6Z" fill="#FBBF24"/>
<path fill-rule="evenodd" clip-rule="evenodd" d="M169 835.6C198.823 835.6 223 811.423 223 781.6C223 751.777 198.823 727.6 169 727.6C139.177 727.6 115 751.777 115 781.6C115 811.423 139.177 835.6 169 835.6ZM169 839.2C200.812 839.2 226.6 813.412 226.6 781.6C226.6 749.788 200.812 724 169 724C137.188 724 111.4 749.788 111.4 781.6C111.4 813.412 137.188 839.2 169 839.2Z" fill="white"/>
<path d="M111.4 685.6C111.4 680.298 115.698 676 121 676H205C210.302 676 214.6 680.298 214.6 685.6C214.6 690.902 210.302 695.2 205 695.2H121C115.698 695.2 111.4 690.902 111.4 685.6Z" fill="#BAE6FD"/>
<path d="M233.8 685.6C233.8 680.298 238.098 676 243.4 676H281.8C287.102 676 291.4 680.298 291.4 685.6C291.4 690.902 287.102 695.2 281.8 695.2H243.4C238.098 695.2 233.8 690.902 233.8 685.6Z" fill="#BAE6FD"/>
<path fill-rule="evenodd" clip-rule="evenodd" d="M402.4 487.073C402.47 480.229 407.908 474.4 414.897 474.4C419.186 474.4 422.342 476.524 424.355 478.523C424.916 479.08 425.397 479.635 425.8 480.147C426.203 479.635 426.684 479.08 427.245 478.523C429.258 476.524 432.414 474.4 436.704 474.4C443.692 474.4 449.13 480.229 449.2 487.073V487.074C449.333 500.423 438.607 509.658 427.825 516.977C427.228 517.383 426.522 517.6 425.8 517.6C425.078 517.6 424.372 517.383 423.775 516.977C412.992 509.658 402.266 500.423 402.4 487.073L402.4 487.073ZM427.408 484.21C427.408 484.209 427.409 484.208 427.41 484.206C427.413 484.199 427.42 484.186 427.43 484.167C427.45 484.129 427.484 484.068 427.531 483.985C427.625 483.821 427.773 483.575 427.973 483.276C428.375 482.675 428.979 481.874 429.781 481.078C431.394 479.477 433.69 478 436.704 478C441.586 478 445.549 482.103 445.6 487.109C445.712 498.359 436.678 506.617 425.802 513.999L425.8 514L425.798 513.999C414.921 506.617 405.887 498.359 406 487.11" fill="white"/>
<path d="M111.4 496C111.4 490.698 115.698 486.4 121 486.4H185.8C191.102 486.4 195.4 490.698 195.4 496C195.4 501.302 191.102 505.6 185.8 505.6H121C115.698 505.6 111.4 501.302 111.4 496Z" fill="#BAE6FD"/>
<path d="M214.6 496C214.6 490.698 218.898 486.4 224.2 486.4H332.2C337.502 486.4 341.8 490.698 341.8 496C341.8 501.302 337.502 505.6 332.2 505.6H224.2C218.898 505.6 214.6 501.302 214.6 496Z" fill="#BAE6FD"/>
<path d="M111.4 541.6C111.4 537.624 114.623 534.4 118.6 534.4H219.4C223.376 534.4 226.6 537.624 226.6 541.6C226.6 545.577 223.376 548.8 219.4 548.8H118.6C114.623 548.8 111.4 545.577 111.4 541.6Z" fill="white"/>
<path d="M111.4 575.2C111.4 571.224 114.623 568 118.6 568H273.4C277.376 568 280.6 571.224 280.6 575.2C280.6 579.177 277.376 582.4 273.4 582.4H118.6C114.623 582.4 111.4 579.177 111.4 575.2Z" fill="white"/>
<path d="M245.8 541.6C245.8 537.624 249.023 534.4 253 534.4H373C376.976 534.4 380.2 537.624 380.2 541.6C380.2 545.577 376.976 548.8 373 548.8H253C249.023 548.8 245.8 545.577 245.8 541.6Z" fill="white"/>
<path d="M111.4 217.6C111.4 204.345 122.145 193.6 135.4 193.6H430.6C443.855 193.6 454.6 204.345 454.6 217.6V404.8C454.6 418.055 443.855 428.8 430.6 428.8H135.4C122.145 428.8 111.4 418.055 111.4 404.8V217.6Z" fill="white"/>
<mask id="mask0_303_118" style="mask-type:alpha" maskUnits="userSpaceOnUse" x="111" y="193" width="344" height="236">
<path d="M111.4 217.6C111.4 204.345 122.145 193.6 135.4 193.6H430.6C443.855 193.6 454.6 204.345 454.6 217.6V404.8C454.6 418.055 443.855 428.8 430.6 428.8H135.4C122.145 428.8 111.4 418.055 111.4 404.8V217.6Z" fill="white"/>
</mask>
<g mask="url(#mask0_303_118)">
<path d="M111.4 193.6H322.6L111.4 395.2V193.6Z" fill="#BAE6FD"/>
<path d="M509.8 404.8C509.8 445.89 476.49 479.2 435.4 479.2C394.31 479.2 361 445.89 361 404.8C361 363.71 394.31 330.4 435.4 330.4C476.49 330.4 509.8 363.71 509.8 404.8Z" fill="#FBBF24"/>
<path d="M435.4 341.2C435.4 382.953 401.553 416.8 359.8 416.8C318.047 416.8 284.2 382.953 284.2 341.2C284.2 299.447 318.047 265.6 359.8 265.6C401.553 265.6 435.4 299.447 435.4 341.2Z" fill="white"/>
<path fill-rule="evenodd" clip-rule="evenodd" d="M359.8 404.8C394.925 404.8 423.4 376.325 423.4 341.2C423.4 306.075 394.925 277.6 359.8 277.6C324.674 277.6 296.2 306.075 296.2 341.2C296.2 376.325 324.674 404.8 359.8 404.8ZM359.8 416.8C401.553 416.8 435.4 382.953 435.4 341.2C435.4 299.447 401.553 265.6 359.8 265.6C318.047 265.6 284.2 299.447 284.2 341.2C284.2 382.953 318.047 416.8 359.8 416.8Z" fill="#E0F2FE"/>
</g>
<mask id="path-25-inside-1_303_118" fill="white">
<path d="M73 926.8H493V1042H73V926.8Z"/>
</mask>
<path d="M73 929.8H493V923.8H73V929.8Z" fill="white" mask="url(#path-25-inside-1_303_118)"/>
<path fill-rule="evenodd" clip-rule="evenodd" d="M131.272 961.001C132.124 961.035 132.835 961.662 132.976 962.504L138.863 997.828L143.869 980.305C144.086 979.546 144.772 979.017 145.561 979C146.35 978.983 147.058 979.482 147.308 980.23L150.497 989.8H156.4C157.394 989.8 158.2 990.605 158.2 991.6C158.2 992.594 157.394 993.4 156.4 993.4H149.2C148.425 993.4 147.737 992.904 147.492 992.169L145.732 986.889L140.131 1006.49C139.899 1007.3 139.139 1007.84 138.298 1007.8C137.458 1007.75 136.763 1007.13 136.625 1006.3L130.847 971.632L125.746 992.036C125.546 992.837 124.826 993.4 124 993.4H116.8C115.806 993.4 115 992.594 115 991.6C115 990.605 115.806 989.8 116.8 989.8H122.595L129.454 962.363C129.661 961.536 130.42 960.967 131.272 961.001Z" fill="white"/>
<path fill-rule="evenodd" clip-rule="evenodd" d="M160 989.8C159.006 989.8 158.2 990.606 158.2 991.6C158.2 992.594 159.006 993.4 160 993.4C160.994 993.4 161.8 992.594 161.8 991.6C161.8 990.606 160.994 989.8 160 989.8ZM154.6 991.6C154.6 988.617 157.018 986.2 160 986.2C162.982 986.2 165.4 988.617 165.4 991.6C165.4 994.582 162.982 997 160 997C157.018 997 154.6 994.582 154.6 991.6Z" fill="white"/>
<path fill-rule="evenodd" clip-rule="evenodd" d="M268.254 964.281C271.457 962.142 275.221 961 279.073 961V962.8L279.073 961C284.237 961 289.19 963.052 292.842 966.703C296.493 970.355 298.545 975.308 298.545 980.472V980.472C298.545 984.323 297.403 988.088 295.264 991.291C293.124 994.493 290.083 996.989 286.525 998.463C282.966 999.936 279.051 1000.32 275.274 999.571C271.496 998.819 268.027 996.965 265.304 994.241C262.58 991.518 260.726 988.048 259.974 984.271C259.223 980.494 259.609 976.578 261.082 973.02C262.556 969.462 265.052 966.421 268.254 964.281ZM279.073 964.6C275.933 964.6 272.865 965.53 270.254 967.275C267.644 969.019 265.61 971.498 264.408 974.398C263.207 977.298 262.893 980.49 263.505 983.569C264.118 986.648 265.629 989.476 267.849 991.696C270.069 993.916 272.897 995.427 275.976 996.04C279.055 996.652 282.247 996.338 285.147 995.137C288.047 993.935 290.526 991.901 292.27 989.291C294.014 986.68 294.945 983.612 294.945 980.472" fill="white"/>
<path fill-rule="evenodd" clip-rule="evenodd" d="M290.985 992.385C291.688 991.682 292.828 991.682 293.531 992.385L305.873 1004.73C306.576 1005.43 306.576 1006.57 305.873 1007.27C305.17 1007.98 304.031 1007.98 303.328 1007.27L290.985 994.93C290.282 994.227 290.282 993.088 290.985 992.385Z" fill="white"/>
<path fill-rule="evenodd" clip-rule="evenodd" d="M404.2 973.6C404.2 972.606 405.006 971.8 406 971.8H445.6C446.594 971.8 447.4 972.606 447.4 973.6C447.4 974.594 446.594 975.4 445.6 975.4H406C405.006 975.4 404.2 974.594 404.2 973.6Z" fill="white"/>
<path fill-rule="evenodd" clip-rule="evenodd" d="M404.2 984.4C404.2 983.405 405.006 982.6 406 982.6H445.6C446.594 982.6 447.4 983.405 447.4 984.4C447.4 985.394 446.594 986.2 445.6 986.2H406C405.006 986.2 404.2 985.394 404.2 984.4Z" fill="white"/>
<path fill-rule="evenodd" clip-rule="evenodd" d="M404.2 995.199C404.2 994.205 405.006 993.399 406 993.399H445.6C446.594 993.399 447.4 994.205 447.4 995.199C447.4 996.194 446.594 996.999 445.6 996.999H406C405.006 996.999 404.2 996.194 404.2 995.199Z" fill="white"/>
</g>
<rect x="75.5" y="144.5" width="415" height="895" rx="17.5" stroke="white" stroke-width="5"/>
</g>
<path d="M534.2 781.6C534.2 813.412 508.412 839.2 476.6 839.2C444.788 839.2 419 813.412 419 781.6C419 749.788 444.788 724 476.6 724C508.412 724 534.2 749.788 534.2 781.6Z" fill="#BAE6FD"/>
<path fill-rule="evenodd" clip-rule="evenodd" d="M476.6 835.6C506.423 835.6 530.6 811.423 530.6 781.6C530.6 751.777 506.423 727.6 476.6 727.6C446.777 727.6 422.6 751.777 422.6 781.6C422.6 811.423 446.777 835.6 476.6 835.6ZM476.6 839.2C508.412 839.2 534.2 813.412 534.2 781.6C534.2 749.788 508.412 724 476.6 724C444.788 724 419 749.788 419 781.6C419 813.412 444.788 839.2 476.6 839.2Z" fill="white"/>
<defs>
<filter id="filter0_dd_303_118" x="53" y="132" width="460" height="950" filterUnits="userSpaceOnUse" color-interpolation-filters="sRGB">
<feFlood flood-opacity="0" result="BackgroundImageFix"/>
<feColorMatrix in="SourceAlpha" type="matrix" values="0 0 0 0 0 0 0 0 0 0 0 0 0 0 0 0 0 0 127 0" result="hardAlpha"/>
<feOffset/>
<feGaussianBlur stdDeviation="5"/>
<feColorMatrix type="matrix" values="0 0 0 0 0 0 0 0 0 0 0 0 0 0 0 0 0 0 0.07 0"/>
<feBlend mode="normal" in2="BackgroundImageFix" result="effect1_dropShadow_303_118"/>
<feColorMatrix in="SourceAlpha" type="matrix" values="0 0 0 0 0 0 0 0 0 0 0 0 0 0 0 0 0 0 127 0" result="hardAlpha"/>
<feMorphology radius="5" operator="erode" in="SourceAlpha" result="effect2_dropShadow_303_118"/>
<feOffset dy="20"/>
<feGaussianBlur stdDeviation="12.5"/>
<feColorMatrix type="matrix" values="0 0 0 0 0 0 0 0 0 0 0 0 0 0 0 0 0 0 0.1 0"/>
<feBlend mode="normal" in2="effect1_dropShadow_303_118" result="effect2_dropShadow_303_118"/>
<feBlend mode="normal" in="SourceGraphic" in2="effect2_dropShadow_303_118" result="shape"/>
</filter>
<clipPath id="clip0_303_118">
<rect x="73" y="142" width="420" height="900" rx="20" fill="white"/>
</clipPath>
</defs>
</svg>
