<svg width="703" height="397" viewBox="0 0 703 397" fill="none" xmlns="http://www.w3.org/2000/svg">
<ellipse cx="125.213" cy="125.108" rx="124.932" ry="125.108" fill="#F59E0B"/>
<ellipse cx="597.841" cy="178.955" rx="104.872" ry="105.048" fill="#7E22CE"/>
<circle cx="585.176" cy="127.746" r="27.0979" fill="#A855F7"/>
<g filter="url(#filter0_dd_308_305)">
<g clip-path="url(#clip0_308_305)">
<rect x="172" y="111" width="358" height="246" rx="20" fill="white"/>
<path d="M193 135.694C190.698 135.694 188.833 133.828 188.833 131.527C188.833 129.226 190.698 127.36 193 127.36C195.301 127.36 197.166 129.226 197.166 131.527C197.166 133.828 195.301 135.694 193 135.694Z" fill="#E11D48"/>
<path d="M208 135.694C205.698 135.694 203.833 133.828 203.833 131.527C203.833 129.226 205.698 127.36 208 127.36C210.301 127.36 212.166 129.226 212.166 131.527C212.166 133.828 210.301 135.694 208 135.694Z" fill="#FBBF24"/>
<path d="M223 135.694C220.698 135.694 218.833 133.828 218.833 131.527C218.833 129.226 220.698 127.36 223 127.36C225.301 127.36 227.166 129.226 227.166 131.527C227.166 133.828 225.301 135.694 223 135.694Z" fill="#22C55E"/>
<path d="M471.757 131.5L476.707 136.45C476.802 136.542 476.878 136.653 476.931 136.775C476.983 136.897 477.011 137.028 477.012 137.161C477.013 137.294 476.988 137.425 476.937 137.548C476.887 137.671 476.813 137.783 476.719 137.877C476.625 137.97 476.513 138.045 476.391 138.095C476.268 138.145 476.136 138.171 476.003 138.169C475.87 138.168 475.739 138.141 475.617 138.088C475.495 138.036 475.385 137.96 475.293 137.864L469.636 132.207C469.448 132.02 469.343 131.765 469.343 131.5C469.343 131.235 469.448 130.981 469.636 130.793L475.293 125.136C475.481 124.954 475.734 124.853 475.996 124.856C476.258 124.858 476.509 124.963 476.694 125.148C476.88 125.334 476.985 125.585 476.987 125.847C476.99 126.109 476.889 126.362 476.707 126.55L471.757 131.5Z" fill="#94A3B8"/>
<path d="M503.314 131.571L498.364 126.621C498.182 126.432 498.081 126.18 498.083 125.918C498.085 125.655 498.19 125.405 498.376 125.219C498.561 125.034 498.812 124.929 499.074 124.926C499.337 124.924 499.589 125.025 499.778 125.207L505.435 130.864C505.622 131.052 505.728 131.306 505.728 131.571C505.728 131.836 505.622 132.09 505.435 132.278L499.778 137.935C499.589 138.117 499.337 138.218 499.074 138.216C498.812 138.213 498.561 138.108 498.376 137.923C498.19 137.737 498.085 137.487 498.083 137.224C498.081 136.962 498.182 136.71 498.364 136.521L503.314 131.571V131.571Z" fill="#475569"/>
<rect width="358" height="205" transform="translate(172 152)" fill="#E0F2FE"/>
<path d="M172 152.273H231.966V357H172V152.273Z" fill="#BFDBFE"/>
<path d="M179.196 171.68C179.196 169.868 180.807 168.4 182.794 168.4H221.173C223.16 168.4 224.771 169.868 224.771 171.68V171.68C224.771 173.491 223.16 174.96 221.173 174.96H182.794C180.807 174.96 179.196 173.491 179.196 171.68V171.68Z" fill="#93C5FD"/>
<path d="M193.588 194.64C193.588 193.734 194.393 193 195.387 193H225.37C226.364 193 227.169 193.734 227.169 194.64V194.64C227.169 195.546 226.364 196.28 225.37 196.28H195.387C194.393 196.28 193.588 195.546 193.588 194.64V194.64Z" fill="white"/>
<path d="M193.588 212.133C193.588 211.227 194.393 210.493 195.387 210.493H216.075C217.069 210.493 217.874 211.227 217.874 212.133V212.133C217.874 213.039 217.069 213.773 216.075 213.773H195.387C194.393 213.773 193.588 213.039 193.588 212.133V212.133Z" fill="white"/>
<path d="M193.588 229.627C193.588 228.721 194.393 227.987 195.387 227.987H221.172C222.166 227.987 222.971 228.721 222.971 229.627V229.627C222.971 230.533 222.166 231.267 221.172 231.267H195.387C194.393 231.267 193.588 230.533 193.588 229.627V229.627Z" fill="white"/>
<path fill-rule="evenodd" clip-rule="evenodd" d="M183.994 198.193C186.146 198.193 187.891 196.602 187.891 194.64C187.891 192.677 186.146 191.087 183.994 191.087C181.841 191.087 180.096 192.677 180.096 194.64C180.096 196.602 181.841 198.193 183.994 198.193ZM183.994 199.013C186.643 199.013 188.791 197.055 188.791 194.64C188.791 192.225 186.643 190.267 183.994 190.267C181.344 190.267 179.196 192.225 179.196 194.64C179.196 197.055 181.344 199.013 183.994 199.013Z" fill="#93C5FD"/>
<path d="M251.156 171.68C251.156 170.472 252.23 169.493 253.555 169.493H288.335C289.66 169.493 290.734 170.472 290.734 171.68V171.68C290.734 172.887 289.66 173.866 288.335 173.866H253.555C252.23 173.866 251.156 172.887 251.156 171.68V171.68Z" fill="#BFDBFE"/>
<path fill-rule="evenodd" clip-rule="evenodd" d="M314.87 259.847C314.888 258.287 316.247 256.96 317.993 256.96C319.065 256.96 319.853 257.444 320.356 257.899C320.496 258.026 320.616 258.152 320.717 258.269C320.818 258.152 320.938 258.026 321.078 257.899C321.581 257.444 322.37 256.96 323.441 256.96C325.188 256.96 326.546 258.287 326.564 259.847V259.847C326.597 262.887 323.917 264.991 321.223 266.658C321.074 266.751 320.898 266.8 320.717 266.8C320.537 266.8 320.36 266.751 320.211 266.658C317.517 264.991 314.837 262.887 314.87 259.847L314.87 259.847ZM321.119 259.194C321.119 259.194 321.119 259.194 321.119 259.193C321.12 259.192 321.122 259.189 321.124 259.185C321.13 259.176 321.138 259.162 321.15 259.143C321.173 259.106 321.21 259.05 321.26 258.982C321.36 258.845 321.511 258.662 321.712 258.481C322.115 258.116 322.688 257.78 323.441 257.78C324.661 257.78 325.652 258.715 325.664 259.855C325.692 262.417 323.435 264.298 320.718 265.98L320.717 265.98L320.717 265.98C317.999 264.298 315.742 262.417 315.77 259.855" fill="white"/>
<path d="M251.156 261.88C251.156 260.672 252.23 259.693 253.555 259.693H269.746C271.071 259.693 272.145 260.672 272.145 261.88V261.88C272.145 263.088 271.071 264.067 269.746 264.067H253.555C252.23 264.067 251.156 263.088 251.156 261.88V261.88Z" fill="#BFDBFE"/>
<path d="M276.941 261.88C276.941 260.672 278.015 259.693 279.34 259.693H306.325C307.65 259.693 308.724 260.672 308.724 261.88V261.88C308.724 263.088 307.65 264.067 306.325 264.067H279.34C278.015 264.067 276.941 263.088 276.941 261.88V261.88Z" fill="#BFDBFE"/>
<path d="M251.156 283.2C251.156 282.294 251.962 281.56 252.955 281.56H278.141C279.135 281.56 279.94 282.294 279.94 283.2V283.2C279.94 284.106 279.135 284.84 278.141 284.84H252.955C251.962 284.84 251.156 284.106 251.156 283.2V283.2Z" fill="white"/>
<path d="M251.156 290.853C251.156 289.948 251.962 289.213 252.955 289.213H291.634C292.627 289.213 293.433 289.948 293.433 290.853V290.853C293.433 291.759 292.627 292.493 291.634 292.493H252.955C251.962 292.493 251.156 291.759 251.156 290.853V290.853Z" fill="white"/>
<path d="M284.737 283.2C284.737 282.294 285.543 281.56 286.536 281.56H316.52C317.513 281.56 318.319 282.294 318.319 283.2V283.2C318.319 284.106 317.513 284.84 316.52 284.84H286.536C285.543 284.84 284.737 284.106 284.737 283.2V283.2Z" fill="white"/>
<path d="M251.156 193C251.156 192.094 251.962 191.36 252.955 191.36H278.141C279.135 191.36 279.94 192.094 279.94 193V193C279.94 193.906 279.135 194.64 278.141 194.64H252.955C251.962 194.64 251.156 193.906 251.156 193V193Z" fill="white"/>
<path d="M251.156 200.653C251.156 199.747 251.962 199.013 252.955 199.013H315.021C316.014 199.013 316.82 199.747 316.82 200.653V200.653C316.82 201.559 316.014 202.293 315.021 202.293H252.955C251.962 202.293 251.156 201.559 251.156 200.653V200.653Z" fill="white"/>
<path d="M284.737 193C284.737 192.094 285.543 191.36 286.536 191.36H354.898C355.892 191.36 356.697 192.094 356.697 193V193C356.697 193.906 355.892 194.64 354.898 194.64H286.536C285.543 194.64 284.737 193.906 284.737 193V193Z" fill="white"/>
<path fill-rule="evenodd" clip-rule="evenodd" d="M188.191 208.58H180.396V215.686H188.191V208.58ZM179.496 207.76V216.506H189.091V207.76H179.496Z" fill="#60A5FA"/>
<g clip-path="url(#clip1_308_305)">
<rect x="379.784" y="171.68" width="59.9665" height="74.8933" rx="10" fill="white"/>
<path d="M419.729 246.638C419.729 265.59 403.016 280.953 382.399 280.953C361.783 280.953 345.069 265.59 345.069 246.638C345.069 227.687 361.783 212.324 382.399 212.324C403.016 212.324 419.729 227.687 419.729 246.638Z" fill="#FBBF24"/>
<path fill-rule="evenodd" clip-rule="evenodd" d="M448.15 200.923L428.645 183.141L410.864 202.646L430.369 220.428L448.15 200.923ZM428.57 181.52L409.243 202.721L430.444 222.049L449.772 200.848L428.57 181.52Z" fill="#BFDBFE"/>
</g>
<path d="M184.293 225.8L189.091 233.375H179.496L184.293 225.8Z" fill="#93C5FD"/>
<rect x="449.345" y="171.68" width="59.9665" height="55.2133" rx="10" fill="white"/>
<path fill-rule="evenodd" clip-rule="evenodd" d="M476.32 212.849C482.298 212.849 487.104 208.471 487.104 203.117C487.104 197.763 482.298 193.386 476.32 193.386C470.341 193.386 465.535 197.763 465.535 203.117C465.535 208.471 470.341 212.849 476.32 212.849ZM476.32 215.582C483.932 215.582 490.102 210.001 490.102 203.117C490.102 196.233 483.932 190.652 476.32 190.652C468.708 190.652 462.537 196.233 462.537 203.117C462.537 210.001 468.708 215.582 476.32 215.582Z" fill="#BFDBFE"/>
<path d="M482.585 199.172L485.72 184.852L496.553 194.728L482.585 199.172Z" fill="#FBBF24"/>
<g clip-path="url(#clip2_308_305)">
<rect x="379.784" y="255.32" width="59.9665" height="83.64" rx="10" fill="white"/>
<path fill-rule="evenodd" clip-rule="evenodd" d="M436.003 349.62C452.81 349.62 466.436 337.199 466.436 321.877C466.436 306.554 452.81 294.133 436.003 294.133C419.195 294.133 405.57 306.554 405.57 321.877C405.57 337.199 419.195 349.62 436.003 349.62ZM436.003 352.353C454.466 352.353 469.434 338.708 469.434 321.877C469.434 305.045 454.466 291.4 436.003 291.4C417.539 291.4 402.571 305.045 402.571 321.877C402.571 338.708 417.539 352.353 436.003 352.353Z" fill="#FBBF24"/>
<path d="M411.267 280.255C411.267 285.422 406.635 289.61 400.922 289.61C395.209 289.61 390.578 285.422 390.578 280.255C390.578 275.088 395.209 270.9 400.922 270.9C406.635 270.9 411.267 275.088 411.267 280.255Z" fill="#BFDBFE"/>
<path fill-rule="evenodd" clip-rule="evenodd" d="M400.922 288.79C406.145 288.79 410.367 284.963 410.367 280.255C410.367 275.547 406.145 271.72 400.922 271.72C395.699 271.72 391.478 275.547 391.478 280.255C391.478 284.963 395.699 288.79 400.922 288.79ZM400.922 289.61C406.635 289.61 411.267 285.422 411.267 280.255C411.267 275.088 406.635 270.9 400.922 270.9C395.209 270.9 390.578 275.088 390.578 280.255C390.578 285.422 395.209 289.61 400.922 289.61Z" fill="#BFDBFE"/>
</g>
<g clip-path="url(#clip3_308_305)">
<rect x="449.345" y="235.64" width="59.9665" height="93.48" rx="10" fill="white"/>
<path d="M523.103 303.017C523.103 309.735 517.196 315.18 509.91 315.18C502.624 315.18 496.718 309.735 496.718 303.017C496.718 296.299 502.624 290.854 509.91 290.854C517.196 290.854 523.103 296.299 523.103 303.017Z" fill="white"/>
<path fill-rule="evenodd" clip-rule="evenodd" d="M509.91 314.36C516.69 314.36 522.204 309.29 522.204 303.017C522.204 296.743 516.69 291.674 509.91 291.674C503.131 291.674 497.617 296.743 497.617 303.017C497.617 309.29 503.131 314.36 509.91 314.36ZM509.91 315.18C517.196 315.18 523.103 309.735 523.103 303.017C523.103 296.299 517.196 290.854 509.91 290.854C502.624 290.854 496.718 296.299 496.718 303.017C496.718 309.735 502.624 315.18 509.91 315.18Z" fill="#BFDBFE"/>
<path d="M499.117 268.577C499.117 277.559 491.196 284.84 481.426 284.84C471.656 284.84 463.736 277.559 463.736 268.577C463.736 259.595 471.656 252.313 481.426 252.313C491.196 252.313 499.117 259.595 499.117 268.577Z" fill="#BFDBFE"/>
<path d="M460.438 299.874L461.284 302.092L463.86 302.14L461.807 303.559L462.553 305.807L460.438 304.466L458.324 305.807L459.07 303.559L457.017 302.14L459.593 302.092L460.438 299.874Z" fill="#FBBF24"/>
<path d="M472.731 299.874L473.577 302.092L476.153 302.14L474.1 303.559L474.846 305.807L472.731 304.466L470.617 305.807L471.363 303.559L469.31 302.14L471.886 302.092L472.731 299.874Z" fill="#FBBF24"/>
<path d="M485.025 299.874L485.871 302.092L488.447 302.14L486.394 303.559L487.14 305.807L485.025 304.466L482.911 305.807L483.657 303.559L481.604 302.14L484.179 302.092L485.025 299.874Z" fill="#FBBF24"/>
<path d="M497.318 299.874L498.164 302.092L500.74 302.14L498.687 303.559L499.433 305.807L497.318 304.466L495.204 305.807L495.95 303.559L493.896 302.14L496.472 302.092L497.318 299.874Z" fill="#FBBF24"/>
<path d="M509.611 299.874L510.457 302.092L513.033 302.14L510.98 303.559L511.726 305.807L509.611 304.466L507.497 305.807L508.243 303.559L506.189 302.14L508.765 302.092L509.611 299.874Z" fill="#FBBF24"/>
</g>
</g>
<rect x="174.5" y="113.5" width="353" height="241" rx="17.5" stroke="white" stroke-width="5"/>
</g>
<defs>
<filter id="filter0_dd_308_305" x="152" y="101" width="398" height="296" filterUnits="userSpaceOnUse" color-interpolation-filters="sRGB">
<feFlood flood-opacity="0" result="BackgroundImageFix"/>
<feColorMatrix in="SourceAlpha" type="matrix" values="0 0 0 0 0 0 0 0 0 0 0 0 0 0 0 0 0 0 127 0" result="hardAlpha"/>
<feOffset/>
<feGaussianBlur stdDeviation="5"/>
<feColorMatrix type="matrix" values="0 0 0 0 0 0 0 0 0 0 0 0 0 0 0 0 0 0 0.07 0"/>
<feBlend mode="normal" in2="BackgroundImageFix" result="effect1_dropShadow_308_305"/>
<feColorMatrix in="SourceAlpha" type="matrix" values="0 0 0 0 0 0 0 0 0 0 0 0 0 0 0 0 0 0 127 0" result="hardAlpha"/>
<feMorphology radius="5" operator="erode" in="SourceAlpha" result="effect2_dropShadow_308_305"/>
<feOffset dy="20"/>
<feGaussianBlur stdDeviation="12.5"/>
<feColorMatrix type="matrix" values="0 0 0 0 0 0 0 0 0 0 0 0 0 0 0 0 0 0 0.1 0"/>
<feBlend mode="normal" in2="effect1_dropShadow_308_305" result="effect2_dropShadow_308_305"/>
<feBlend mode="normal" in="SourceGraphic" in2="effect2_dropShadow_308_305" result="shape"/>
</filter>
<clipPath id="clip0_308_305">
<rect x="172" y="111" width="358" height="246" rx="20" fill="white"/>
</clipPath>
<clipPath id="clip1_308_305">
<rect x="379.784" y="171.68" width="59.9665" height="74.8933" rx="10" fill="white"/>
</clipPath>
<clipPath id="clip2_308_305">
<rect x="379.784" y="255.32" width="59.9665" height="83.64" rx="10" fill="white"/>
</clipPath>
<clipPath id="clip3_308_305">
<rect x="449.345" y="235.64" width="59.9665" height="93.48" rx="10" fill="white"/>
</clipPath>
</defs>
</svg>
