<svg width="1084" height="633" viewBox="0 0 1084 633" fill="none" xmlns="http://www.w3.org/2000/svg">
<g filter="url(#filter0_dd_305_119)">
<path d="M136 43C136 27.536 148.536 15 164 15H924C939.464 15 952 27.536 952 43V551C952 553.209 950.209 555 948 555H140C137.791 555 136 553.209 136 551V43Z" fill="#0F172A"/>
<path d="M141 42C141 29.8497 150.85 20 163 20H925C937.15 20 947 29.8497 947 42V547H141V42Z" fill="black"/>
<rect width="761" height="478" transform="translate(162 48)" fill="#E0F2FE"/>
<path d="M162 48.6375H289.471V526H162V48.6375Z" fill="#BFDBFE"/>
<path d="M177.297 93.888C177.297 89.6641 180.721 86.24 184.945 86.24H266.526C270.75 86.24 274.175 89.6641 274.175 93.888V93.888C274.175 98.1119 270.75 101.536 266.526 101.536H184.945C180.721 101.536 177.297 98.1119 177.297 93.888V93.888Z" fill="#93C5FD"/>
<path d="M207.89 147.424C207.89 145.312 209.602 143.6 211.714 143.6H275.449C277.561 143.6 279.273 145.312 279.273 147.424V147.424C279.273 149.536 277.561 151.248 275.449 151.248H211.714C209.602 151.248 207.89 149.536 207.89 147.424V147.424Z" fill="white"/>
<path d="M207.89 188.213C207.89 186.101 209.602 184.389 211.714 184.389H255.691C257.803 184.389 259.515 186.101 259.515 188.213V188.213C259.515 190.325 257.803 192.037 255.691 192.037H211.714C209.602 192.037 207.89 190.325 207.89 188.213V188.213Z" fill="white"/>
<path d="M207.89 229.003C207.89 226.891 209.602 225.179 211.714 225.179H266.526C268.638 225.179 270.35 226.891 270.35 229.003V229.003C270.35 231.115 268.638 232.827 266.526 232.827H211.714C209.602 232.827 207.89 231.115 207.89 229.003V229.003Z" fill="white"/>
<path fill-rule="evenodd" clip-rule="evenodd" d="M187.495 155.709C192.071 155.709 195.78 152 195.78 147.424C195.78 142.848 192.071 139.139 187.495 139.139C182.919 139.139 179.209 142.848 179.209 147.424C179.209 152 182.919 155.709 187.495 155.709ZM187.495 157.621C193.127 157.621 197.692 153.056 197.692 147.424C197.692 141.792 193.127 137.227 187.495 137.227C181.863 137.227 177.297 141.792 177.297 147.424C177.297 153.056 181.863 157.621 187.495 157.621Z" fill="#93C5FD"/>
<path d="M330.262 93.888C330.262 91.0721 332.545 88.7893 335.361 88.7893H409.294C412.11 88.7893 414.392 91.0721 414.392 93.888V93.888C414.392 96.7039 412.11 98.9866 409.294 98.9866H335.361C332.545 98.9866 330.262 96.7039 330.262 93.888V93.888Z" fill="#BFDBFE"/>
<path fill-rule="evenodd" clip-rule="evenodd" d="M465.699 299.467C465.736 295.831 468.624 292.736 472.336 292.736C474.615 292.736 476.29 293.864 477.36 294.926C477.658 295.221 477.913 295.516 478.127 295.788C478.341 295.516 478.597 295.221 478.895 294.926C479.964 293.864 481.64 292.736 483.918 292.736C487.63 292.736 490.518 295.831 490.556 299.467V299.467C490.626 306.557 484.929 311.462 479.203 315.349C478.886 315.565 478.511 315.68 478.127 315.68C477.744 315.68 477.369 315.565 477.052 315.349C471.325 311.462 465.628 306.557 465.699 299.467L465.699 299.467ZM478.981 297.946C478.981 297.946 478.982 297.945 478.982 297.944C478.984 297.94 478.988 297.933 478.993 297.923C479.004 297.903 479.022 297.87 479.047 297.827C479.097 297.739 479.175 297.609 479.281 297.45C479.495 297.131 479.816 296.706 480.242 296.282C481.098 295.432 482.318 294.648 483.918 294.648C486.511 294.648 488.616 296.827 488.644 299.486C488.703 305.461 483.905 309.847 478.128 313.768L478.127 313.768L478.126 313.768C472.349 309.847 467.551 305.461 467.611 299.486" fill="white"/>
<path d="M330.262 304.208C330.262 301.392 332.545 299.109 335.361 299.109H369.778C372.594 299.109 374.876 301.392 374.876 304.208V304.208C374.876 307.024 372.594 309.307 369.778 309.307H335.361C332.545 309.307 330.262 307.024 330.262 304.208V304.208Z" fill="#BFDBFE"/>
<path d="M385.074 304.208C385.074 301.392 387.357 299.109 390.173 299.109H447.535C450.351 299.109 452.634 301.392 452.634 304.208V304.208C452.634 307.024 450.351 309.307 447.535 309.307H390.173C387.357 309.307 385.074 307.024 385.074 304.208V304.208Z" fill="#BFDBFE"/>
<path d="M330.262 353.92C330.262 351.808 331.974 350.096 334.086 350.096H387.624C389.736 350.096 391.448 351.808 391.448 353.92V353.92C391.448 356.032 389.736 357.744 387.624 357.744H334.086C331.974 357.744 330.262 356.032 330.262 353.92V353.92Z" fill="white"/>
<path d="M330.262 371.765C330.262 369.653 331.974 367.941 334.086 367.941H416.304C418.416 367.941 420.129 369.653 420.129 371.765V371.765C420.129 373.877 418.416 375.589 416.304 375.589H334.086C331.974 375.589 330.262 373.877 330.262 371.765V371.765Z" fill="white"/>
<path d="M401.646 353.92C401.646 351.808 403.358 350.096 405.47 350.096H469.205C471.317 350.096 473.029 351.808 473.029 353.92V353.92C473.029 356.032 471.317 357.744 469.205 357.744H405.47C403.358 357.744 401.646 356.032 401.646 353.92V353.92Z" fill="white"/>
<path d="M330.262 143.6C330.262 141.488 331.974 139.776 334.086 139.776H387.624C389.736 139.776 391.448 141.488 391.448 143.6V143.6C391.448 145.712 389.736 147.424 387.624 147.424H334.086C331.974 147.424 330.262 145.712 330.262 143.6V143.6Z" fill="white"/>
<path d="M330.262 161.445C330.262 159.333 331.974 157.621 334.086 157.621H466.018C468.13 157.621 469.842 159.333 469.842 161.445V161.445C469.842 163.557 468.13 165.269 466.018 165.269H334.086C331.974 165.269 330.262 163.557 330.262 161.445V161.445Z" fill="white"/>
<path d="M401.646 143.6C401.646 141.488 403.358 139.776 405.47 139.776H550.787C552.899 139.776 554.611 141.488 554.611 143.6V143.6C554.611 145.712 552.899 147.424 550.787 147.424H405.47C403.358 147.424 401.646 145.712 401.646 143.6V143.6Z" fill="white"/>
<path fill-rule="evenodd" clip-rule="evenodd" d="M196.417 179.928H179.846V196.499H196.417V179.928ZM177.934 178.016V198.411H198.329V178.016H177.934Z" fill="#60A5FA"/>
<g clip-path="url(#clip0_305_119)">
<rect x="603.686" y="93.8879" width="127.471" height="174.629" rx="20" fill="white"/>
<path d="M688.597 268.668C688.597 312.857 653.07 348.68 609.245 348.68C565.42 348.68 529.893 312.857 529.893 268.668C529.893 224.479 565.42 188.656 609.245 188.656C653.07 188.656 688.597 224.479 688.597 268.668Z" fill="#FBBF24"/>
<path fill-rule="evenodd" clip-rule="evenodd" d="M748.852 161.898L707.39 120.437L665.929 161.9L707.391 203.361L748.852 161.898ZM707.39 116.832L662.323 161.9L707.391 206.966L752.457 161.898L707.39 116.832Z" fill="#BFDBFE"/>
</g>
<path d="M188.131 220.08L198.329 237.742H177.934L188.131 220.08Z" fill="#93C5FD"/>
<rect x="751.552" y="93.8879" width="127.471" height="128.741" rx="20" fill="white"/>
<path fill-rule="evenodd" clip-rule="evenodd" d="M808.893 189.881C821.602 189.881 831.818 179.674 831.818 167.19C831.818 154.706 821.602 144.499 808.893 144.499C796.185 144.499 785.969 154.706 785.969 167.19C785.969 179.674 796.185 189.881 808.893 189.881ZM808.893 196.254C825.074 196.254 838.191 183.242 838.191 167.19C838.191 151.138 825.074 138.125 808.893 138.125C792.713 138.125 779.596 151.138 779.596 167.19C779.596 183.242 792.713 196.254 808.893 196.254Z" fill="#BFDBFE"/>
<path d="M822.209 157.99L830.637 126.534L853.664 149.561L822.209 157.99Z" fill="#FBBF24"/>
<g clip-path="url(#clip1_305_119)">
<rect x="603.686" y="288.912" width="127.471" height="195.024" rx="20" fill="white"/>
<path fill-rule="evenodd" clip-rule="evenodd" d="M723.189 508.792C758.917 508.792 787.88 479.83 787.88 444.103C787.88 408.376 758.917 379.413 723.189 379.413C687.461 379.413 658.498 408.376 658.498 444.103C658.498 479.83 687.461 508.792 723.189 508.792ZM723.189 515.165C762.437 515.165 794.254 483.349 794.254 444.103C794.254 404.856 762.437 373.04 723.189 373.04C683.941 373.04 652.124 404.856 652.124 444.103C652.124 483.349 683.941 515.165 723.189 515.165Z" fill="#FBBF24"/>
<path d="M670.607 347.054C670.607 359.101 660.763 368.867 648.619 368.867C636.475 368.867 626.63 359.101 626.63 347.054C626.63 335.006 636.475 325.24 648.619 325.24C660.763 325.24 670.607 335.006 670.607 347.054Z" fill="#BFDBFE"/>
<path fill-rule="evenodd" clip-rule="evenodd" d="M648.619 366.955C659.721 366.955 668.695 358.031 668.695 347.054C668.695 336.077 659.721 327.152 648.619 327.152C637.516 327.152 628.542 336.077 628.542 347.054C628.542 358.031 637.516 366.955 648.619 366.955ZM648.619 368.867C660.763 368.867 670.607 359.101 670.607 347.054C670.607 335.006 660.763 325.24 648.619 325.24C636.475 325.24 626.63 335.006 626.63 347.054C626.63 359.101 636.475 368.867 648.619 368.867Z" fill="#BFDBFE"/>
</g>
<g clip-path="url(#clip2_305_119)">
<rect x="751.552" y="243.024" width="127.471" height="217.968" rx="20" fill="white"/>
<path d="M908.341 400.126C908.341 415.79 895.786 428.488 880.297 428.488C864.809 428.488 852.254 415.79 852.254 400.126C852.254 384.463 864.809 371.765 880.297 371.765C895.786 371.765 908.341 384.463 908.341 400.126Z" fill="white"/>
<path fill-rule="evenodd" clip-rule="evenodd" d="M880.297 426.576C894.709 426.576 906.429 414.754 906.429 400.126C906.429 385.498 894.709 373.677 880.297 373.677C865.886 373.677 854.166 385.498 854.166 400.126C854.166 414.754 865.886 426.576 880.297 426.576ZM880.297 428.488C895.786 428.488 908.341 415.79 908.341 400.126C908.341 384.463 895.786 371.765 880.297 371.765C864.809 371.765 852.254 384.463 852.254 400.126C852.254 415.79 864.809 428.488 880.297 428.488Z" fill="#BFDBFE"/>
<path d="M857.352 319.823C857.352 340.766 840.516 357.744 819.748 357.744C798.98 357.744 782.145 340.766 782.145 319.823C782.145 298.879 798.98 281.901 819.748 281.901C840.516 281.901 857.352 298.879 857.352 319.823Z" fill="#BFDBFE"/>
<path d="M775.133 392.797L776.931 397.97L782.407 398.082L778.043 401.391L779.629 406.633L775.133 403.505L770.638 406.633L772.224 401.391L767.859 398.082L773.335 397.97L775.133 392.797Z" fill="#FBBF24"/>
<path d="M801.265 392.797L803.063 397.97L808.539 398.082L804.175 401.391L805.761 406.633L801.265 403.505L796.77 406.633L798.356 401.391L793.991 398.082L799.467 397.97L801.265 392.797Z" fill="#FBBF24"/>
<path d="M827.397 392.797L829.195 397.97L834.671 398.082L830.307 401.391L831.892 406.633L827.397 403.505L822.901 406.633L824.487 401.391L820.123 398.082L825.599 397.97L827.397 392.797Z" fill="#FBBF24"/>
<path d="M853.528 392.797L855.326 397.97L860.802 398.082L856.437 401.391L858.023 406.633L853.528 403.505L849.032 406.633L850.618 401.391L846.254 398.082L851.73 397.97L853.528 392.797Z" fill="#FBBF24"/>
<path d="M879.66 392.797L881.458 397.97L886.934 398.082L882.569 401.391L884.155 406.633L879.66 403.505L875.164 406.633L876.75 401.391L872.386 398.082L877.861 397.97L879.66 392.797Z" fill="#FBBF24"/>
</g>
<path d="M38 554C38 552.895 38.8954 552 40 552H1044C1045.1 552 1046 552.895 1046 554V558H38V554Z" fill="#94A3B8"/>
<path d="M38 558H1046L1025.65 562.105C999.613 567.355 973.123 570 946.566 570H135.909C106.724 570 77.6267 566.806 49.1367 560.475L38 558Z" fill="#475569"/>
</g>
<defs>
<filter id="filter0_dd_305_119" x="0" y="0" width="1084" height="633" filterUnits="userSpaceOnUse" color-interpolation-filters="sRGB">
<feFlood flood-opacity="0" result="BackgroundImageFix"/>
<feColorMatrix in="SourceAlpha" type="matrix" values="0 0 0 0 0 0 0 0 0 0 0 0 0 0 0 0 0 0 127 0" result="hardAlpha"/>
<feOffset/>
<feGaussianBlur stdDeviation="7.5"/>
<feComposite in2="hardAlpha" operator="out"/>
<feColorMatrix type="matrix" values="0 0 0 0 0 0 0 0 0 0 0 0 0 0 0 0 0 0 0.07 0"/>
<feBlend mode="normal" in2="BackgroundImageFix" result="effect1_dropShadow_305_119"/>
<feColorMatrix in="SourceAlpha" type="matrix" values="0 0 0 0 0 0 0 0 0 0 0 0 0 0 0 0 0 0 127 0" result="hardAlpha"/>
<feMorphology radius="12" operator="erode" in="SourceAlpha" result="effect2_dropShadow_305_119"/>
<feOffset dy="25"/>
<feGaussianBlur stdDeviation="25"/>
<feColorMatrix type="matrix" values="0 0 0 0 0 0 0 0 0 0 0 0 0 0 0 0 0 0 0.25 0"/>
<feBlend mode="normal" in2="effect1_dropShadow_305_119" result="effect2_dropShadow_305_119"/>
<feBlend mode="normal" in="SourceGraphic" in2="effect2_dropShadow_305_119" result="shape"/>
</filter>
<clipPath id="clip0_305_119">
<rect x="603.686" y="93.8879" width="127.471" height="174.629" rx="20" fill="white"/>
</clipPath>
<clipPath id="clip1_305_119">
<rect x="603.686" y="288.912" width="127.471" height="195.024" rx="20" fill="white"/>
</clipPath>
<clipPath id="clip2_305_119">
<rect x="751.552" y="243.024" width="127.471" height="217.968" rx="20" fill="white"/>
</clipPath>
</defs>
</svg>
