<svg width="2166" height="1052" viewBox="0 0 2166 1052" fill="none" xmlns="http://www.w3.org/2000/svg">
<ellipse cx="355" cy="355.5" rx="355" ry="355.5" fill="#F59E0B"/>
<ellipse cx="1868" cy="501.5" rx="298" ry="298.5" fill="#7E22CE"/>
<g filter="url(#filter0_dd_302_70)">
<g clip-path="url(#clip0_302_70)">
<rect x="408" y="158" width="1520" height="854" rx="20" fill="white"/>
<path d="M429 182.694C426.699 182.694 424.833 180.828 424.833 178.527C424.833 176.226 426.699 174.36 429 174.36C431.301 174.36 433.167 176.226 433.167 178.527C433.167 180.828 431.301 182.694 429 182.694Z" fill="#E11D48"/>
<path d="M444 182.694C441.699 182.694 439.833 180.828 439.833 178.527C439.833 176.226 441.699 174.36 444 174.36C446.301 174.36 448.167 176.226 448.167 178.527C448.167 180.828 446.301 182.694 444 182.694Z" fill="#FBBF24"/>
<path d="M459 182.694C456.699 182.694 454.833 180.828 454.833 178.527C454.833 176.226 456.699 174.36 459 174.36C461.301 174.36 463.167 176.226 463.167 178.527C463.167 180.828 461.301 182.694 459 182.694Z" fill="#22C55E"/>
<path d="M1869.76 178.5L1874.71 183.45C1874.8 183.542 1874.88 183.653 1874.93 183.775C1874.98 183.897 1875.01 184.028 1875.01 184.161C1875.01 184.293 1874.99 184.425 1874.94 184.548C1874.89 184.671 1874.81 184.782 1874.72 184.876C1874.63 184.97 1874.51 185.045 1874.39 185.095C1874.27 185.145 1874.14 185.17 1874 185.169C1873.87 185.168 1873.74 185.14 1873.62 185.088C1873.5 185.036 1873.39 184.959 1873.29 184.864L1867.64 179.207C1867.45 179.019 1867.34 178.765 1867.34 178.5C1867.34 178.235 1867.45 177.98 1867.64 177.793L1873.29 172.136C1873.48 171.954 1873.73 171.853 1874 171.855C1874.26 171.858 1874.51 171.963 1874.69 172.148C1874.88 172.334 1874.99 172.584 1874.99 172.847C1874.99 173.109 1874.89 173.361 1874.71 173.55L1869.76 178.5Z" fill="#94A3B8"/>
<path d="M1901.31 178.571L1896.36 173.621C1896.18 173.432 1896.08 173.18 1896.08 172.918C1896.09 172.655 1896.19 172.405 1896.38 172.219C1896.56 172.034 1896.81 171.929 1897.07 171.926C1897.34 171.924 1897.59 172.025 1897.78 172.207L1903.44 177.864C1903.62 178.052 1903.73 178.306 1903.73 178.571C1903.73 178.836 1903.62 179.09 1903.44 179.278L1897.78 184.935C1897.59 185.117 1897.34 185.218 1897.07 185.216C1896.81 185.213 1896.56 185.108 1896.38 184.923C1896.19 184.737 1896.09 184.487 1896.08 184.224C1896.08 183.962 1896.18 183.71 1896.36 183.521L1901.31 178.571V178.571Z" fill="#475569"/>
<rect x="827.398" y="166" width="683.867" height="25" rx="5" fill="#F1F5F9"/>
<path d="M1129.26 181.875L1130.89 176.66H1131.61L1131.47 177.697L1129.81 183H1129.11L1129.26 181.875ZM1128.17 176.66L1129.56 181.934L1129.66 183H1128.92L1127.08 176.66H1128.17ZM1133.17 181.893L1134.49 176.66H1135.57L1133.73 183H1133L1133.17 181.893ZM1131.77 176.66L1133.36 181.787L1133.54 183H1132.85L1131.14 177.686L1131 176.66H1131.77ZM1138.29 181.875L1139.92 176.66H1140.63L1140.49 177.697L1138.83 183H1138.13L1138.29 181.875ZM1137.19 176.66L1138.58 181.934L1138.68 183H1137.95L1136.11 176.66H1137.19ZM1142.19 181.893L1143.51 176.66H1144.59L1142.75 183H1142.02L1142.19 181.893ZM1140.79 176.66L1142.38 181.787L1142.56 183H1141.87L1140.17 177.686L1140.03 176.66H1140.79ZM1147.31 181.875L1148.94 176.66H1149.65L1149.51 177.697L1147.85 183H1147.16L1147.31 181.875ZM1146.21 176.66L1147.6 181.934L1147.7 183H1146.97L1145.13 176.66H1146.21ZM1151.21 181.893L1152.54 176.66H1153.61L1151.77 183H1151.05L1151.21 181.893ZM1149.81 176.66L1151.41 181.787L1151.59 183H1150.9L1149.19 177.686L1149.05 176.66H1149.81ZM1154.02 182.426C1154.02 182.242 1154.08 182.088 1154.19 181.963C1154.31 181.834 1154.47 181.77 1154.69 181.77C1154.91 181.77 1155.08 181.834 1155.19 181.963C1155.31 182.088 1155.37 182.242 1155.37 182.426C1155.37 182.605 1155.31 182.758 1155.19 182.883C1155.08 183.008 1154.91 183.07 1154.69 183.07C1154.47 183.07 1154.31 183.008 1154.19 182.883C1154.08 182.758 1154.02 182.605 1154.02 182.426ZM1160.86 181.318C1160.86 181.162 1160.82 181.018 1160.75 180.885C1160.69 180.748 1160.55 180.625 1160.34 180.516C1160.13 180.402 1159.82 180.305 1159.4 180.223C1159.05 180.148 1158.73 180.061 1158.44 179.959C1158.16 179.857 1157.92 179.734 1157.72 179.59C1157.53 179.445 1157.38 179.275 1157.27 179.08C1157.17 178.885 1157.11 178.656 1157.11 178.395C1157.11 178.145 1157.17 177.908 1157.28 177.686C1157.39 177.463 1157.55 177.266 1157.75 177.094C1157.96 176.922 1158.21 176.787 1158.5 176.689C1158.78 176.592 1159.11 176.543 1159.46 176.543C1159.97 176.543 1160.4 176.633 1160.76 176.812C1161.12 176.992 1161.4 177.232 1161.59 177.533C1161.78 177.83 1161.88 178.16 1161.88 178.523H1160.79C1160.79 178.348 1160.74 178.178 1160.63 178.014C1160.53 177.846 1160.38 177.707 1160.18 177.598C1159.99 177.488 1159.75 177.434 1159.46 177.434C1159.16 177.434 1158.92 177.48 1158.73 177.574C1158.55 177.664 1158.41 177.779 1158.33 177.92C1158.24 178.061 1158.2 178.209 1158.2 178.365C1158.2 178.482 1158.22 178.588 1158.26 178.682C1158.3 178.771 1158.38 178.855 1158.48 178.934C1158.59 179.008 1158.74 179.078 1158.93 179.145C1159.12 179.211 1159.36 179.277 1159.66 179.344C1160.18 179.461 1160.61 179.602 1160.94 179.766C1161.28 179.93 1161.53 180.131 1161.69 180.369C1161.86 180.607 1161.94 180.896 1161.94 181.236C1161.94 181.514 1161.88 181.768 1161.77 181.998C1161.65 182.229 1161.49 182.428 1161.27 182.596C1161.05 182.76 1160.79 182.889 1160.49 182.982C1160.2 183.072 1159.86 183.117 1159.49 183.117C1158.93 183.117 1158.46 183.018 1158.07 182.818C1157.69 182.619 1157.39 182.361 1157.19 182.045C1157 181.729 1156.9 181.395 1156.9 181.043H1157.99C1158 181.34 1158.09 181.576 1158.24 181.752C1158.4 181.924 1158.59 182.047 1158.82 182.121C1159.04 182.191 1159.27 182.227 1159.49 182.227C1159.79 182.227 1160.04 182.188 1160.24 182.109C1160.44 182.031 1160.59 181.924 1160.7 181.787C1160.8 181.65 1160.86 181.494 1160.86 181.318ZM1163.08 179.9V179.766C1163.08 179.309 1163.14 178.885 1163.28 178.494C1163.41 178.1 1163.6 177.758 1163.85 177.469C1164.1 177.176 1164.4 176.949 1164.76 176.789C1165.11 176.625 1165.51 176.543 1165.95 176.543C1166.4 176.543 1166.8 176.625 1167.16 176.789C1167.52 176.949 1167.82 177.176 1168.07 177.469C1168.32 177.758 1168.52 178.1 1168.65 178.494C1168.78 178.885 1168.85 179.309 1168.85 179.766V179.9C1168.85 180.357 1168.78 180.781 1168.65 181.172C1168.52 181.562 1168.32 181.904 1168.07 182.197C1167.82 182.486 1167.52 182.713 1167.16 182.877C1166.81 183.037 1166.41 183.117 1165.97 183.117C1165.52 183.117 1165.12 183.037 1164.77 182.877C1164.41 182.713 1164.1 182.486 1163.85 182.197C1163.6 181.904 1163.41 181.562 1163.28 181.172C1163.14 180.781 1163.08 180.357 1163.08 179.9ZM1164.16 179.766V179.9C1164.16 180.217 1164.2 180.516 1164.27 180.797C1164.35 181.074 1164.46 181.32 1164.61 181.535C1164.76 181.75 1164.95 181.92 1165.18 182.045C1165.4 182.166 1165.67 182.227 1165.97 182.227C1166.26 182.227 1166.52 182.166 1166.75 182.045C1166.97 181.92 1167.16 181.75 1167.31 181.535C1167.46 181.32 1167.57 181.074 1167.64 180.797C1167.72 180.516 1167.76 180.217 1167.76 179.9V179.766C1167.76 179.453 1167.72 179.158 1167.64 178.881C1167.57 178.6 1167.45 178.352 1167.3 178.137C1167.15 177.918 1166.97 177.746 1166.74 177.621C1166.52 177.496 1166.26 177.434 1165.95 177.434C1165.66 177.434 1165.4 177.496 1165.17 177.621C1164.95 177.746 1164.76 177.918 1164.61 178.137C1164.46 178.352 1164.35 178.6 1164.27 178.881C1164.2 179.158 1164.16 179.453 1164.16 179.766ZM1171.39 174V183H1170.3V174H1171.39ZM1174.3 174V183H1173.21V174H1174.3ZM1178.68 183.117C1178.23 183.117 1177.83 183.043 1177.47 182.895C1177.12 182.742 1176.81 182.529 1176.55 182.256C1176.3 181.982 1176.1 181.658 1175.97 181.283C1175.83 180.908 1175.76 180.498 1175.76 180.053V179.807C1175.76 179.291 1175.84 178.832 1175.99 178.43C1176.14 178.023 1176.35 177.68 1176.61 177.398C1176.87 177.117 1177.17 176.904 1177.5 176.76C1177.84 176.615 1178.18 176.543 1178.53 176.543C1178.99 176.543 1179.38 176.621 1179.71 176.777C1180.04 176.934 1180.31 177.152 1180.52 177.434C1180.73 177.711 1180.89 178.039 1180.99 178.418C1181.09 178.793 1181.14 179.203 1181.14 179.648V180.135H1176.41V179.25H1180.06V179.168C1180.04 178.887 1179.98 178.613 1179.88 178.348C1179.78 178.082 1179.63 177.863 1179.41 177.691C1179.2 177.52 1178.91 177.434 1178.53 177.434C1178.29 177.434 1178.06 177.486 1177.85 177.592C1177.65 177.693 1177.47 177.846 1177.32 178.049C1177.17 178.252 1177.06 178.5 1176.98 178.793C1176.89 179.086 1176.85 179.424 1176.85 179.807V180.053C1176.85 180.354 1176.89 180.637 1176.98 180.902C1177.06 181.164 1177.19 181.395 1177.35 181.594C1177.51 181.793 1177.71 181.949 1177.94 182.062C1178.17 182.176 1178.44 182.232 1178.73 182.232C1179.12 182.232 1179.44 182.154 1179.71 181.998C1179.97 181.842 1180.2 181.633 1180.4 181.371L1181.06 181.893C1180.92 182.1 1180.75 182.297 1180.54 182.484C1180.33 182.672 1180.07 182.824 1179.76 182.941C1179.45 183.059 1179.09 183.117 1178.68 183.117ZM1183.49 177.656V183H1182.41V176.66H1183.46L1183.49 177.656ZM1185.47 176.625L1185.47 177.633C1185.38 177.613 1185.29 177.602 1185.21 177.598C1185.13 177.59 1185.04 177.586 1184.94 177.586C1184.69 177.586 1184.47 177.625 1184.28 177.703C1184.09 177.781 1183.92 177.891 1183.79 178.031C1183.66 178.172 1183.55 178.34 1183.47 178.535C1183.4 178.727 1183.35 178.938 1183.33 179.168L1183.02 179.344C1183.02 178.961 1183.06 178.602 1183.13 178.266C1183.21 177.93 1183.33 177.633 1183.49 177.375C1183.65 177.113 1183.85 176.91 1184.1 176.766C1184.35 176.617 1184.65 176.543 1184.99 176.543C1185.07 176.543 1185.16 176.553 1185.26 176.572C1185.36 176.588 1185.43 176.605 1185.47 176.625ZM1185.77 182.426C1185.77 182.242 1185.82 182.088 1185.94 181.963C1186.05 181.834 1186.22 181.77 1186.44 181.77C1186.66 181.77 1186.82 181.834 1186.94 181.963C1187.05 182.088 1187.11 182.242 1187.11 182.426C1187.11 182.605 1187.05 182.758 1186.94 182.883C1186.82 183.008 1186.66 183.07 1186.44 183.07C1186.22 183.07 1186.05 183.008 1185.94 182.883C1185.82 182.758 1185.77 182.605 1185.77 182.426ZM1191.45 182.227C1191.71 182.227 1191.94 182.174 1192.16 182.068C1192.38 181.963 1192.56 181.818 1192.7 181.635C1192.84 181.447 1192.92 181.234 1192.94 180.996H1193.97C1193.95 181.371 1193.83 181.721 1193.59 182.045C1193.36 182.365 1193.06 182.625 1192.69 182.824C1192.31 183.02 1191.9 183.117 1191.45 183.117C1190.97 183.117 1190.56 183.033 1190.2 182.865C1189.85 182.697 1189.56 182.467 1189.32 182.174C1189.09 181.881 1188.92 181.545 1188.8 181.166C1188.69 180.783 1188.63 180.379 1188.63 179.953V179.707C1188.63 179.281 1188.69 178.879 1188.8 178.5C1188.92 178.117 1189.09 177.779 1189.32 177.486C1189.56 177.193 1189.85 176.963 1190.2 176.795C1190.56 176.627 1190.97 176.543 1191.45 176.543C1191.94 176.543 1192.38 176.645 1192.75 176.848C1193.12 177.047 1193.41 177.32 1193.62 177.668C1193.84 178.012 1193.95 178.402 1193.97 178.84H1192.94C1192.92 178.578 1192.85 178.342 1192.72 178.131C1192.6 177.92 1192.42 177.752 1192.2 177.627C1191.99 177.498 1191.74 177.434 1191.45 177.434C1191.12 177.434 1190.84 177.5 1190.61 177.633C1190.39 177.762 1190.21 177.938 1190.08 178.16C1189.95 178.379 1189.85 178.623 1189.8 178.893C1189.74 179.158 1189.71 179.43 1189.71 179.707V179.953C1189.71 180.23 1189.74 180.504 1189.8 180.773C1189.85 181.043 1189.94 181.287 1190.07 181.506C1190.2 181.725 1190.38 181.9 1190.6 182.033C1190.83 182.162 1191.11 182.227 1191.45 182.227ZM1194.91 179.9V179.766C1194.91 179.309 1194.97 178.885 1195.1 178.494C1195.24 178.1 1195.43 177.758 1195.68 177.469C1195.93 177.176 1196.23 176.949 1196.59 176.789C1196.94 176.625 1197.34 176.543 1197.78 176.543C1198.23 176.543 1198.63 176.625 1198.98 176.789C1199.34 176.949 1199.65 177.176 1199.9 177.469C1200.15 177.758 1200.35 178.1 1200.48 178.494C1200.61 178.885 1200.68 179.309 1200.68 179.766V179.9C1200.68 180.357 1200.61 180.781 1200.48 181.172C1200.35 181.562 1200.15 181.904 1199.9 182.197C1199.65 182.486 1199.35 182.713 1198.99 182.877C1198.64 183.037 1198.24 183.117 1197.79 183.117C1197.35 183.117 1196.95 183.037 1196.59 182.877C1196.24 182.713 1195.93 182.486 1195.68 182.197C1195.43 181.904 1195.24 181.562 1195.1 181.172C1194.97 180.781 1194.91 180.357 1194.91 179.9ZM1195.99 179.766V179.9C1195.99 180.217 1196.03 180.516 1196.1 180.797C1196.18 181.074 1196.29 181.32 1196.44 181.535C1196.59 181.75 1196.78 181.92 1197 182.045C1197.23 182.166 1197.49 182.227 1197.79 182.227C1198.09 182.227 1198.35 182.166 1198.57 182.045C1198.8 181.92 1198.99 181.75 1199.14 181.535C1199.28 181.32 1199.4 181.074 1199.47 180.797C1199.55 180.516 1199.59 180.217 1199.59 179.9V179.766C1199.59 179.453 1199.55 179.158 1199.47 178.881C1199.4 178.6 1199.28 178.352 1199.13 178.137C1198.98 177.918 1198.79 177.746 1198.57 177.621C1198.35 177.496 1198.08 177.434 1197.78 177.434C1197.49 177.434 1197.22 177.496 1197 177.621C1196.77 177.746 1196.59 177.918 1196.44 178.137C1196.29 178.352 1196.18 178.6 1196.1 178.881C1196.03 179.158 1195.99 179.453 1195.99 179.766ZM1203.11 177.92V183H1202.02V176.66H1203.06L1203.11 177.92ZM1202.89 179.59L1202.39 179.572C1202.39 179.139 1202.45 178.738 1202.56 178.371C1202.67 178 1202.83 177.678 1203.04 177.404C1203.26 177.131 1203.53 176.92 1203.85 176.771C1204.17 176.619 1204.54 176.543 1204.96 176.543C1205.26 176.543 1205.53 176.586 1205.78 176.672C1206.03 176.754 1206.25 176.885 1206.43 177.064C1206.61 177.244 1206.76 177.475 1206.86 177.756C1206.96 178.037 1207.01 178.377 1207.01 178.775V183H1205.93V178.828C1205.93 178.496 1205.87 178.23 1205.76 178.031C1205.65 177.832 1205.49 177.688 1205.29 177.598C1205.09 177.504 1204.85 177.457 1204.57 177.457C1204.25 177.457 1203.99 177.514 1203.77 177.627C1203.56 177.74 1203.38 177.896 1203.26 178.096C1203.13 178.295 1203.03 178.523 1202.97 178.781C1202.92 179.035 1202.89 179.305 1202.89 179.59ZM1207 178.992L1206.27 179.215C1206.28 178.867 1206.33 178.533 1206.44 178.213C1206.56 177.893 1206.72 177.607 1206.93 177.357C1207.14 177.107 1207.41 176.91 1207.72 176.766C1208.03 176.617 1208.39 176.543 1208.79 176.543C1209.13 176.543 1209.43 176.588 1209.69 176.678C1209.96 176.768 1210.18 176.906 1210.36 177.094C1210.55 177.277 1210.69 177.514 1210.78 177.803C1210.87 178.092 1210.92 178.436 1210.92 178.834V183H1209.83V178.822C1209.83 178.467 1209.77 178.191 1209.66 177.996C1209.55 177.797 1209.39 177.658 1209.19 177.58C1208.99 177.498 1208.75 177.457 1208.48 177.457C1208.24 177.457 1208.03 177.498 1207.84 177.58C1207.66 177.662 1207.51 177.775 1207.38 177.92C1207.26 178.061 1207.16 178.223 1207.09 178.406C1207.03 178.59 1207 178.785 1207 178.992Z" fill="#94A3B8"/>
<rect width="1520" height="813" transform="translate(408 199)" fill="#E0F2FE"/>
<path d="M408 200.084H662.606V1012H408V200.084Z" fill="#BFDBFE"/>
<path d="M438.553 277.048C438.553 269.864 445.392 264.04 453.829 264.04H616.777C625.214 264.04 632.054 269.864 632.054 277.048V277.048C632.054 284.232 625.214 290.056 616.777 290.056H453.829C445.392 290.056 438.553 284.232 438.553 277.048V277.048Z" fill="#93C5FD"/>
<path d="M499.658 368.104C499.658 364.512 503.078 361.6 507.296 361.6H634.599C638.818 361.6 642.238 364.512 642.238 368.104V368.104C642.238 371.696 638.818 374.608 634.599 374.608H507.296C503.078 374.608 499.658 371.696 499.658 368.104V368.104Z" fill="white"/>
<path d="M499.658 437.48C499.658 433.888 503.078 430.976 507.296 430.976H595.136C599.354 430.976 602.774 433.888 602.774 437.48V437.48C602.774 441.072 599.354 443.984 595.136 443.984H507.296C503.078 443.984 499.658 441.072 499.658 437.48V437.48Z" fill="white"/>
<path d="M499.658 506.856C499.658 503.264 503.078 500.352 507.296 500.352H616.777C620.995 500.352 624.415 503.264 624.415 506.856V506.856C624.415 510.448 620.995 513.36 616.777 513.36H507.296C503.078 513.36 499.658 510.448 499.658 506.856V506.856Z" fill="white"/>
<path fill-rule="evenodd" clip-rule="evenodd" d="M458.921 382.196C468.061 382.196 475.471 375.887 475.471 368.104C475.471 360.321 468.061 354.012 458.921 354.012C449.781 354.012 442.372 360.321 442.372 368.104C442.372 375.887 449.781 382.196 458.921 382.196ZM458.921 385.448C470.17 385.448 479.29 377.683 479.29 368.104C479.29 358.525 470.17 350.76 458.921 350.76C447.672 350.76 438.553 358.525 438.553 368.104C438.553 377.683 447.672 385.448 458.921 385.448Z" fill="#93C5FD"/>
<path d="M744.081 277.048C744.081 272.259 748.64 268.376 754.265 268.376H901.937C907.562 268.376 912.121 272.259 912.121 277.048V277.048C912.121 281.837 907.562 285.72 901.937 285.72H754.265C748.64 285.72 744.081 281.837 744.081 277.048V277.048Z" fill="#BFDBFE"/>
<path fill-rule="evenodd" clip-rule="evenodd" d="M1014.6 626.703C1014.67 620.521 1020.44 615.256 1027.86 615.256C1032.41 615.256 1035.76 617.174 1037.89 618.98C1038.49 619.483 1039 619.984 1039.42 620.447C1039.85 619.984 1040.36 619.483 1040.96 618.98C1043.09 617.174 1046.44 615.256 1050.99 615.256C1058.41 615.256 1064.17 620.521 1064.25 626.703V626.704C1064.39 638.763 1053.01 647.106 1041.57 653.717C1040.94 654.084 1040.19 654.28 1039.42 654.28C1038.66 654.28 1037.91 654.084 1037.28 653.717C1025.84 647.106 1014.46 638.763 1014.6 626.704L1014.6 626.703ZM1041.13 624.117C1041.13 624.116 1041.13 624.115 1041.13 624.113C1041.14 624.107 1041.14 624.096 1041.15 624.079C1041.17 624.044 1041.21 623.988 1041.26 623.914C1041.36 623.765 1041.52 623.544 1041.73 623.274C1042.16 622.731 1042.8 622.007 1043.65 621.288C1045.36 619.842 1047.79 618.508 1050.99 618.508C1056.17 618.508 1060.37 622.214 1060.43 626.736C1060.55 636.898 1050.96 644.358 1039.43 651.027L1039.42 651.028L1039.42 651.027C1027.88 644.358 1018.3 636.898 1018.42 626.737" fill="white"/>
<path d="M744.081 634.768C744.081 629.979 748.64 626.096 754.265 626.096H823.009C828.633 626.096 833.193 629.979 833.193 634.768V634.768C833.193 639.557 828.633 643.44 823.009 643.44H754.265C748.64 643.44 744.081 639.557 744.081 634.768V634.768Z" fill="#BFDBFE"/>
<path d="M853.562 634.768C853.562 629.979 858.121 626.096 863.746 626.096H978.319C983.944 626.096 988.503 629.979 988.503 634.768V634.768C988.503 639.557 983.944 643.44 978.319 643.44H863.746C858.121 643.44 853.562 639.557 853.562 634.768V634.768Z" fill="#BFDBFE"/>
<path d="M744.081 719.32C744.081 715.728 747.5 712.816 751.719 712.816H858.654C862.872 712.816 866.292 715.728 866.292 719.32V719.32C866.292 722.912 862.872 725.824 858.654 725.824H751.719C747.5 725.824 744.081 722.912 744.081 719.32V719.32Z" fill="white"/>
<path d="M744.081 749.672C744.081 746.08 747.5 743.168 751.719 743.168H915.94C920.159 743.168 923.578 746.08 923.578 749.672V749.672C923.578 753.264 920.159 756.176 915.94 756.176H751.719C747.5 756.176 744.081 753.264 744.081 749.672V749.672Z" fill="white"/>
<path d="M886.66 719.32C886.66 715.728 890.08 712.816 894.298 712.816H1021.6C1025.82 712.816 1029.24 715.728 1029.24 719.32V719.32C1029.24 722.912 1025.82 725.824 1021.6 725.824H894.298C890.08 725.824 886.66 722.912 886.66 719.32V719.32Z" fill="white"/>
<path d="M744.081 361.6C744.081 358.008 747.5 355.096 751.719 355.096H858.654C862.872 355.096 866.292 358.008 866.292 361.6V361.6C866.292 365.192 862.872 368.104 858.654 368.104H751.719C747.5 368.104 744.081 365.192 744.081 361.6V361.6Z" fill="white"/>
<path d="M744.081 391.952C744.081 388.36 747.5 385.448 751.719 385.448H1015.24C1019.45 385.448 1022.87 388.36 1022.87 391.952V391.952C1022.87 395.544 1019.45 398.456 1015.24 398.456H751.719C747.5 398.456 744.081 395.544 744.081 391.952V391.952Z" fill="white"/>
<path d="M886.66 361.6C886.66 358.008 890.08 355.096 894.298 355.096H1184.55C1188.77 355.096 1192.19 358.008 1192.19 361.6V361.6C1192.19 365.192 1188.77 368.104 1184.55 368.104H894.298C890.08 368.104 886.66 365.192 886.66 361.6V361.6Z" fill="white"/>
<path fill-rule="evenodd" clip-rule="evenodd" d="M476.744 423.388H443.645V451.572H476.744V423.388ZM439.826 420.136V454.824H480.563V420.136H439.826Z" fill="#60A5FA"/>
<g clip-path="url(#clip1_302_70)">
<rect x="1290.21" y="277.048" width="254.606" height="297.016" rx="20" fill="white"/>
<path d="M1459.81 574.321C1459.81 649.48 1388.85 710.408 1301.32 710.408C1213.78 710.408 1142.82 649.48 1142.82 574.321C1142.82 499.162 1213.78 438.234 1301.32 438.234C1388.85 438.234 1459.81 499.162 1459.81 574.321Z" fill="#FBBF24"/>
<path fill-rule="evenodd" clip-rule="evenodd" d="M1580.7 393.257L1497.88 322.739L1427.36 405.554L1510.18 476.073L1580.7 393.257ZM1497.35 316.072L1420.7 406.089L1510.71 482.739L1587.36 392.722L1497.35 316.072Z" fill="#BFDBFE"/>
</g>
<path d="M460.194 491.68L480.563 521.721H439.826L460.194 491.68Z" fill="#93C5FD"/>
<rect x="1585.55" y="277.048" width="254.606" height="218.968" rx="20" fill="white"/>
<path fill-rule="evenodd" clip-rule="evenodd" d="M1700.09 440.317C1725.47 440.317 1745.87 422.956 1745.87 401.723C1745.87 380.489 1725.47 363.129 1700.09 363.129C1674.7 363.129 1654.3 380.489 1654.3 401.723C1654.3 422.956 1674.7 440.317 1700.09 440.317ZM1700.09 451.157C1732.41 451.157 1758.6 429.024 1758.6 401.723C1758.6 374.421 1732.41 352.289 1700.09 352.289C1667.77 352.289 1641.57 374.421 1641.57 401.723C1641.57 429.024 1667.77 451.157 1700.09 451.157Z" fill="#BFDBFE"/>
<path d="M1726.68 386.076L1737.6 326.661L1783.6 365.826L1726.68 386.076Z" fill="#FBBF24"/>
<g clip-path="url(#clip2_302_70)">
<rect x="1290.21" y="608.752" width="254.606" height="331.704" rx="20" fill="white"/>
<path fill-rule="evenodd" clip-rule="evenodd" d="M1528.9 982.732C1600.27 982.732 1658.12 933.472 1658.12 872.706C1658.12 811.94 1600.27 762.68 1528.9 762.68C1457.54 762.68 1399.69 811.94 1399.69 872.706C1399.69 933.472 1457.54 982.732 1528.9 982.732ZM1528.9 993.572C1607.3 993.572 1670.85 939.458 1670.85 872.706C1670.85 805.953 1607.3 751.84 1528.9 751.84C1450.51 751.84 1386.96 805.953 1386.96 872.706C1386.96 939.458 1450.51 993.572 1528.9 993.572Z" fill="#FBBF24"/>
<path d="M1423.88 707.641C1423.88 728.132 1404.22 744.743 1379.96 744.743C1355.7 744.743 1336.04 728.132 1336.04 707.641C1336.04 687.151 1355.7 670.54 1379.96 670.54C1404.22 670.54 1423.88 687.151 1423.88 707.641Z" fill="#BFDBFE"/>
<path fill-rule="evenodd" clip-rule="evenodd" d="M1379.96 741.491C1402.14 741.491 1420.06 726.312 1420.06 707.641C1420.06 688.971 1402.14 673.792 1379.96 673.792C1357.78 673.792 1339.86 688.971 1339.86 707.641C1339.86 726.312 1357.78 741.491 1379.96 741.491ZM1379.96 744.743C1404.22 744.743 1423.88 728.132 1423.88 707.641C1423.88 687.151 1404.22 670.54 1379.96 670.54C1355.7 670.54 1336.04 687.151 1336.04 707.641C1336.04 728.132 1355.7 744.743 1379.96 744.743Z" fill="#BFDBFE"/>
</g>
<g clip-path="url(#clip3_302_70)">
<rect x="1585.55" y="530.704" width="254.606" height="370.728" rx="20" fill="white"/>
<path d="M1898.72 797.91C1898.72 824.551 1873.64 846.148 1842.71 846.148C1811.77 846.148 1786.69 824.551 1786.69 797.91C1786.69 771.269 1811.77 749.672 1842.71 749.672C1873.64 749.672 1898.72 771.269 1898.72 797.91Z" fill="white"/>
<path fill-rule="evenodd" clip-rule="evenodd" d="M1842.71 842.896C1871.49 842.896 1894.9 822.79 1894.9 797.91C1894.9 773.03 1871.49 752.924 1842.71 752.924C1813.92 752.924 1790.51 773.03 1790.51 797.91C1790.51 822.79 1813.92 842.896 1842.71 842.896ZM1842.71 846.148C1873.64 846.148 1898.72 824.551 1898.72 797.91C1898.72 771.269 1873.64 749.672 1842.71 749.672C1811.77 749.672 1786.69 771.269 1786.69 797.91C1786.69 824.551 1811.77 846.148 1842.71 846.148Z" fill="#BFDBFE"/>
<path d="M1796.88 661.326C1796.88 696.947 1763.25 725.824 1721.77 725.824C1680.29 725.824 1646.66 696.947 1646.66 661.326C1646.66 625.705 1680.29 596.828 1721.77 596.828C1763.25 596.828 1796.88 625.705 1796.88 661.326Z" fill="#BFDBFE"/>
<path d="M1632.66 785.444L1636.25 794.243L1647.19 794.432L1638.47 800.06L1641.64 808.976L1632.66 803.655L1623.68 808.976L1626.85 800.06L1618.13 794.432L1629.06 794.243L1632.66 785.444Z" fill="#FBBF24"/>
<path d="M1684.85 785.444L1688.44 794.243L1699.38 794.432L1690.66 800.06L1693.83 808.976L1684.85 803.655L1675.87 808.976L1679.04 800.06L1670.32 794.432L1681.26 794.243L1684.85 785.444Z" fill="#FBBF24"/>
<path d="M1737.05 785.444L1740.64 794.243L1751.57 794.432L1742.86 800.06L1746.02 808.976L1737.05 803.655L1728.07 808.976L1731.23 800.06L1722.52 794.432L1733.45 794.243L1737.05 785.444Z" fill="#FBBF24"/>
<path d="M1789.24 785.444L1792.83 794.243L1803.77 794.432L1795.05 800.06L1798.22 808.976L1789.24 803.655L1780.26 808.976L1783.43 800.06L1774.71 794.432L1785.65 794.243L1789.24 785.444Z" fill="#FBBF24"/>
<path d="M1841.43 785.444L1845.03 794.243L1855.96 794.432L1847.25 800.06L1850.41 808.976L1841.43 803.655L1832.45 808.976L1835.62 800.06L1826.91 794.432L1837.84 794.243L1841.43 785.444Z" fill="#FBBF24"/>
</g>
</g>
<rect x="410.5" y="160.5" width="1515" height="849" rx="17.5" stroke="white" stroke-width="5"/>
</g>
<defs>
<filter id="filter0_dd_302_70" x="388" y="148" width="1560" height="904" filterUnits="userSpaceOnUse" color-interpolation-filters="sRGB">
<feFlood flood-opacity="0" result="BackgroundImageFix"/>
<feColorMatrix in="SourceAlpha" type="matrix" values="0 0 0 0 0 0 0 0 0 0 0 0 0 0 0 0 0 0 127 0" result="hardAlpha"/>
<feOffset/>
<feGaussianBlur stdDeviation="5"/>
<feColorMatrix type="matrix" values="0 0 0 0 0 0 0 0 0 0 0 0 0 0 0 0 0 0 0.07 0"/>
<feBlend mode="normal" in2="BackgroundImageFix" result="effect1_dropShadow_302_70"/>
<feColorMatrix in="SourceAlpha" type="matrix" values="0 0 0 0 0 0 0 0 0 0 0 0 0 0 0 0 0 0 127 0" result="hardAlpha"/>
<feMorphology radius="5" operator="erode" in="SourceAlpha" result="effect2_dropShadow_302_70"/>
<feOffset dy="20"/>
<feGaussianBlur stdDeviation="12.5"/>
<feColorMatrix type="matrix" values="0 0 0 0 0 0 0 0 0 0 0 0 0 0 0 0 0 0 0.1 0"/>
<feBlend mode="normal" in2="effect1_dropShadow_302_70" result="effect2_dropShadow_302_70"/>
<feBlend mode="normal" in="SourceGraphic" in2="effect2_dropShadow_302_70" result="shape"/>
</filter>
<clipPath id="clip0_302_70">
<rect x="408" y="158" width="1520" height="854" rx="20" fill="white"/>
</clipPath>
<clipPath id="clip1_302_70">
<rect x="1290.21" y="277.048" width="254.606" height="297.016" rx="20" fill="white"/>
</clipPath>
<clipPath id="clip2_302_70">
<rect x="1290.21" y="608.752" width="254.606" height="331.704" rx="20" fill="white"/>
</clipPath>
<clipPath id="clip3_302_70">
<rect x="1585.55" y="530.704" width="254.606" height="370.728" rx="20" fill="white"/>
</clipPath>
</defs>
</svg>
