<svg width="1560" height="904" viewBox="0 0 1560 904" fill="none" xmlns="http://www.w3.org/2000/svg">
<g filter="url(#filter0_dd_300_253)">
<g clip-path="url(#clip0_300_253)">
<rect x="20" y="10" width="1520" height="854" rx="20" fill="white"/>
<path d="M41.0002 34.6937C38.6989 34.6937 36.8335 32.8283 36.8335 30.527C36.8335 28.2258 38.6989 26.3604 41.0002 26.3604C43.3014 26.3604 45.1668 28.2258 45.1668 30.527C45.1668 32.8283 43.3014 34.6937 41.0002 34.6937Z" fill="#E11D48"/>
<path d="M56.0002 34.6937C53.6989 34.6937 51.8335 32.8283 51.8335 30.527C51.8335 28.2258 53.6989 26.3604 56.0002 26.3604C58.3014 26.3604 60.1668 28.2258 60.1668 30.527C60.1668 32.8283 58.3014 34.6937 56.0002 34.6937Z" fill="#FBBF24"/>
<path d="M71.0002 34.6937C68.6989 34.6937 66.8335 32.8283 66.8335 30.527C66.8335 28.2258 68.6989 26.3604 71.0002 26.3604C73.3014 26.3604 75.1668 28.2258 75.1668 30.527C75.1668 32.8283 73.3014 34.6937 71.0002 34.6937Z" fill="#22C55E"/>
<path d="M1481.76 30.5002L1486.71 35.4502C1486.8 35.5425 1486.88 35.6528 1486.93 35.7748C1486.98 35.8968 1487.01 36.028 1487.01 36.1608C1487.01 36.2936 1486.99 36.4253 1486.94 36.5482C1486.89 36.6711 1486.81 36.7827 1486.72 36.8766C1486.63 36.9705 1486.51 37.0448 1486.39 37.095C1486.27 37.1453 1486.14 37.1706 1486 37.1695C1485.87 37.1683 1485.74 37.1407 1485.62 37.0883C1485.5 37.0359 1485.39 36.9597 1485.29 36.8642L1479.64 31.2072C1479.45 31.0196 1479.34 30.7653 1479.34 30.5002C1479.34 30.235 1479.45 29.9807 1479.64 29.7932L1485.29 24.1362C1485.48 23.954 1485.73 23.8532 1486 23.8555C1486.26 23.8578 1486.51 23.963 1486.69 24.1484C1486.88 24.3338 1486.99 24.5846 1486.99 24.8468C1486.99 25.109 1486.89 25.3616 1486.71 25.5502L1481.76 30.5002Z" fill="#94A3B8"/>
<path d="M1513.31 30.571L1508.36 25.621C1508.18 25.4324 1508.08 25.1798 1508.08 24.9176C1508.09 24.6554 1508.19 24.4046 1508.38 24.2192C1508.56 24.0338 1508.81 23.9286 1509.07 23.9263C1509.34 23.924 1509.59 24.0248 1509.78 24.207L1515.44 29.864C1515.62 30.0515 1515.73 30.3058 1515.73 30.571C1515.73 30.8361 1515.62 31.0904 1515.44 31.278L1509.78 36.935C1509.59 37.1172 1509.34 37.218 1509.07 37.2157C1508.81 37.2134 1508.56 37.1082 1508.38 36.9228C1508.19 36.7374 1508.09 36.4866 1508.08 36.2244C1508.08 35.9622 1508.18 35.7096 1508.36 35.521L1513.31 30.571V30.571Z" fill="#475569"/>
<rect x="439.398" y="18" width="683.867" height="25" rx="5" fill="#F1F5F9"/>
<path d="M741.263 33.875L742.892 28.6602H743.607L743.466 29.6973L741.808 35H741.111L741.263 33.875ZM740.167 28.6602L741.556 33.9336L741.656 35H740.923L739.083 28.6602H740.167ZM745.166 33.8926L746.49 28.6602H747.568L745.728 35H745.001L745.166 33.8926ZM743.765 28.6602L745.359 33.7871L745.541 35H744.849L743.144 29.6855L743.003 28.6602H743.765ZM750.287 33.875L751.916 28.6602H752.63L752.49 29.6973L750.832 35H750.134L750.287 33.875ZM749.191 28.6602L750.58 33.9336L750.679 35H749.947L748.107 28.6602H749.191ZM754.189 33.8926L755.513 28.6602H756.591L754.751 35H754.025L754.189 33.8926ZM752.789 28.6602L754.382 33.7871L754.564 35H753.873L752.167 29.6855L752.027 28.6602H752.789ZM759.31 33.875L760.939 28.6602H761.654L761.513 29.6973L759.855 35H759.158L759.31 33.875ZM758.214 28.6602L759.603 33.9336L759.703 35H758.97L757.13 28.6602H758.214ZM763.212 33.8926L764.537 28.6602H765.615L763.775 35H763.048L763.212 33.8926ZM761.812 28.6602L763.406 33.7871L763.587 35H762.896L761.191 29.6855L761.05 28.6602H761.812ZM766.019 34.4258C766.019 34.2422 766.076 34.0879 766.189 33.9629C766.306 33.834 766.474 33.7695 766.693 33.7695C766.912 33.7695 767.078 33.834 767.191 33.9629C767.308 34.0879 767.367 34.2422 767.367 34.4258C767.367 34.6055 767.308 34.7578 767.191 34.8828C767.078 35.0078 766.912 35.0703 766.693 35.0703C766.474 35.0703 766.306 35.0078 766.189 34.8828C766.076 34.7578 766.019 34.6055 766.019 34.4258ZM772.857 33.3184C772.857 33.1621 772.822 33.0176 772.751 32.8848C772.685 32.748 772.546 32.625 772.335 32.5156C772.128 32.4023 771.816 32.3047 771.398 32.2227C771.046 32.1484 770.728 32.0605 770.443 31.959C770.162 31.8574 769.921 31.7344 769.722 31.5898C769.527 31.4453 769.376 31.2754 769.271 31.0801C769.166 30.8848 769.113 30.6562 769.113 30.3945C769.113 30.1445 769.167 29.9082 769.277 29.6855C769.39 29.4629 769.548 29.2656 769.751 29.0938C769.958 28.9219 770.207 28.7871 770.496 28.6895C770.785 28.5918 771.107 28.543 771.462 28.543C771.97 28.543 772.404 28.6328 772.763 28.8125C773.123 28.9922 773.398 29.2324 773.589 29.5332C773.781 29.8301 773.876 30.1602 773.876 30.5234H772.792C772.792 30.3477 772.74 30.1777 772.634 30.0137C772.533 29.8457 772.382 29.707 772.183 29.5977C771.988 29.4883 771.748 29.4336 771.462 29.4336C771.162 29.4336 770.917 29.4805 770.73 29.5742C770.546 29.6641 770.412 29.7793 770.326 29.9199C770.244 30.0605 770.203 30.209 770.203 30.3652C770.203 30.4824 770.222 30.5879 770.261 30.6816C770.304 30.7715 770.378 30.8555 770.484 30.9336C770.589 31.0078 770.738 31.0781 770.929 31.1445C771.121 31.2109 771.365 31.2773 771.662 31.3438C772.181 31.4609 772.609 31.6016 772.945 31.7656C773.281 31.9297 773.531 32.1309 773.695 32.3691C773.859 32.6074 773.941 32.8965 773.941 33.2363C773.941 33.5137 773.882 33.7676 773.765 33.998C773.652 34.2285 773.486 34.4277 773.267 34.5957C773.052 34.7598 772.794 34.8887 772.494 34.9824C772.197 35.0723 771.863 35.1172 771.492 35.1172C770.933 35.1172 770.46 35.0176 770.074 34.8184C769.687 34.6191 769.394 34.3613 769.195 34.0449C768.996 33.7285 768.896 33.3945 768.896 33.043H769.986C770.001 33.3398 770.087 33.5762 770.244 33.752C770.4 33.9238 770.591 34.0469 770.818 34.1211C771.044 34.1914 771.269 34.2266 771.492 34.2266C771.789 34.2266 772.037 34.1875 772.236 34.1094C772.439 34.0312 772.593 33.9238 772.699 33.7871C772.804 33.6504 772.857 33.4941 772.857 33.3184ZM775.078 31.9004V31.7656C775.078 31.3086 775.144 30.8848 775.277 30.4941C775.41 30.0996 775.601 29.7578 775.851 29.4688C776.101 29.1758 776.404 28.9492 776.759 28.7891C777.115 28.625 777.513 28.543 777.955 28.543C778.4 28.543 778.8 28.625 779.156 28.7891C779.515 28.9492 779.82 29.1758 780.07 29.4688C780.324 29.7578 780.517 30.0996 780.65 30.4941C780.783 30.8848 780.849 31.3086 780.849 31.7656V31.9004C780.849 32.3574 780.783 32.7812 780.65 33.1719C780.517 33.5625 780.324 33.9043 780.07 34.1973C779.82 34.4863 779.517 34.7129 779.162 34.877C778.81 35.0371 778.412 35.1172 777.966 35.1172C777.521 35.1172 777.121 35.0371 776.765 34.877C776.41 34.7129 776.105 34.4863 775.851 34.1973C775.601 33.9043 775.41 33.5625 775.277 33.1719C775.144 32.7812 775.078 32.3574 775.078 31.9004ZM776.162 31.7656V31.9004C776.162 32.2168 776.199 32.5156 776.273 32.7969C776.347 33.0742 776.458 33.3203 776.607 33.5352C776.759 33.75 776.949 33.9199 777.175 34.0449C777.402 34.166 777.666 34.2266 777.966 34.2266C778.263 34.2266 778.523 34.166 778.746 34.0449C778.972 33.9199 779.16 33.75 779.308 33.5352C779.457 33.3203 779.568 33.0742 779.642 32.7969C779.72 32.5156 779.759 32.2168 779.759 31.9004V31.7656C779.759 31.4531 779.72 31.1582 779.642 30.8809C779.568 30.5996 779.455 30.3516 779.302 30.1367C779.154 29.918 778.966 29.7461 778.74 29.6211C778.517 29.4961 778.255 29.4336 777.955 29.4336C777.658 29.4336 777.396 29.4961 777.169 29.6211C776.947 29.7461 776.759 29.918 776.607 30.1367C776.458 30.3516 776.347 30.5996 776.273 30.8809C776.199 31.1582 776.162 31.4531 776.162 31.7656ZM783.386 26V35H782.296V26H783.386ZM786.304 26V35H785.214V26H786.304ZM790.675 35.1172C790.234 35.1172 789.833 35.043 789.474 34.8945C789.119 34.7422 788.812 34.5293 788.554 34.2559C788.3 33.9824 788.105 33.6582 787.968 33.2832C787.832 32.9082 787.763 32.498 787.763 32.0527V31.8066C787.763 31.291 787.839 30.832 787.992 30.4297C788.144 30.0234 788.351 29.6797 788.613 29.3984C788.875 29.1172 789.171 28.9043 789.503 28.7598C789.835 28.6152 790.179 28.543 790.535 28.543C790.988 28.543 791.378 28.6211 791.707 28.7773C792.039 28.9336 792.31 29.1523 792.521 29.4336C792.732 29.7109 792.888 30.0391 792.99 30.418C793.091 30.793 793.142 31.2031 793.142 31.6484V32.1348H788.408V31.25H792.058V31.168C792.042 30.8867 791.984 30.6133 791.882 30.3477C791.785 30.082 791.628 29.8633 791.414 29.6914C791.199 29.5195 790.906 29.4336 790.535 29.4336C790.289 29.4336 790.062 29.4863 789.855 29.5918C789.648 29.6934 789.47 29.8457 789.322 30.0488C789.173 30.252 789.058 30.5 788.976 30.793C788.894 31.0859 788.853 31.4238 788.853 31.8066V32.0527C788.853 32.3535 788.894 32.6367 788.976 32.9023C789.062 33.1641 789.185 33.3945 789.345 33.5938C789.509 33.793 789.707 33.9492 789.937 34.0625C790.171 34.1758 790.437 34.2324 790.734 34.2324C791.117 34.2324 791.441 34.1543 791.707 33.998C791.972 33.8418 792.205 33.6328 792.404 33.3711L793.06 33.8926C792.923 34.0996 792.75 34.2969 792.539 34.4844C792.328 34.6719 792.068 34.8242 791.759 34.9414C791.455 35.0586 791.093 35.1172 790.675 35.1172ZM795.492 29.6562V35H794.408V28.6602H795.462L795.492 29.6562ZM797.472 28.625L797.466 29.6328C797.376 29.6133 797.291 29.6016 797.208 29.5977C797.13 29.5898 797.041 29.5859 796.939 29.5859C796.689 29.5859 796.468 29.625 796.277 29.7031C796.085 29.7812 795.923 29.8906 795.791 30.0312C795.658 30.1719 795.552 30.3398 795.474 30.5352C795.4 30.7266 795.351 30.9375 795.328 31.168L795.023 31.3438C795.023 30.9609 795.06 30.6016 795.134 30.2656C795.212 29.9297 795.332 29.6328 795.492 29.375C795.652 29.1133 795.855 28.9102 796.101 28.7656C796.351 28.6172 796.648 28.543 796.992 28.543C797.07 28.543 797.16 28.5527 797.261 28.5723C797.363 28.5879 797.433 28.6055 797.472 28.625ZM797.765 34.4258C797.765 34.2422 797.822 34.0879 797.935 33.9629C798.052 33.834 798.22 33.7695 798.439 33.7695C798.658 33.7695 798.824 33.834 798.937 33.9629C799.054 34.0879 799.113 34.2422 799.113 34.4258C799.113 34.6055 799.054 34.7578 798.937 34.8828C798.824 35.0078 798.658 35.0703 798.439 35.0703C798.22 35.0703 798.052 35.0078 797.935 34.8828C797.822 34.7578 797.765 34.6055 797.765 34.4258ZM803.449 34.2266C803.707 34.2266 803.945 34.1738 804.164 34.0684C804.382 33.9629 804.562 33.8184 804.703 33.6348C804.843 33.4473 804.923 33.2344 804.943 32.9961H805.974C805.955 33.3711 805.828 33.7207 805.593 34.0449C805.363 34.3652 805.06 34.625 804.685 34.8242C804.31 35.0195 803.898 35.1172 803.449 35.1172C802.972 35.1172 802.556 35.0332 802.201 34.8652C801.849 34.6973 801.556 34.4668 801.322 34.1738C801.091 33.8809 800.917 33.5449 800.8 33.166C800.687 32.7832 800.63 32.3789 800.63 31.9531V31.707C800.63 31.2812 800.687 30.8789 800.8 30.5C800.917 30.1172 801.091 29.7793 801.322 29.4863C801.556 29.1934 801.849 28.9629 802.201 28.7949C802.556 28.627 802.972 28.543 803.449 28.543C803.945 28.543 804.378 28.6445 804.75 28.8477C805.121 29.0469 805.412 29.3203 805.623 29.668C805.837 30.0117 805.955 30.4023 805.974 30.8398H804.943C804.923 30.5781 804.849 30.3418 804.72 30.1309C804.595 29.9199 804.423 29.752 804.205 29.627C803.99 29.498 803.738 29.4336 803.449 29.4336C803.117 29.4336 802.837 29.5 802.611 29.6328C802.388 29.7617 802.21 29.9375 802.078 30.1602C801.949 30.3789 801.855 30.623 801.796 30.8926C801.742 31.1582 801.714 31.4297 801.714 31.707V31.9531C801.714 32.2305 801.742 32.5039 801.796 32.7734C801.851 33.043 801.943 33.2871 802.072 33.5059C802.205 33.7246 802.382 33.9004 802.605 34.0332C802.832 34.1621 803.113 34.2266 803.449 34.2266ZM806.906 31.9004V31.7656C806.906 31.3086 806.972 30.8848 807.105 30.4941C807.238 30.0996 807.429 29.7578 807.679 29.4688C807.929 29.1758 808.232 28.9492 808.587 28.7891C808.943 28.625 809.341 28.543 809.783 28.543C810.228 28.543 810.628 28.625 810.984 28.7891C811.343 28.9492 811.648 29.1758 811.898 29.4688C812.152 29.7578 812.345 30.0996 812.478 30.4941C812.611 30.8848 812.677 31.3086 812.677 31.7656V31.9004C812.677 32.3574 812.611 32.7812 812.478 33.1719C812.345 33.5625 812.152 33.9043 811.898 34.1973C811.648 34.4863 811.345 34.7129 810.99 34.877C810.638 35.0371 810.24 35.1172 809.794 35.1172C809.349 35.1172 808.949 35.0371 808.593 34.877C808.238 34.7129 807.933 34.4863 807.679 34.1973C807.429 33.9043 807.238 33.5625 807.105 33.1719C806.972 32.7812 806.906 32.3574 806.906 31.9004ZM807.99 31.7656V31.9004C807.99 32.2168 808.027 32.5156 808.101 32.7969C808.175 33.0742 808.287 33.3203 808.435 33.5352C808.587 33.75 808.777 33.9199 809.003 34.0449C809.23 34.166 809.494 34.2266 809.794 34.2266C810.091 34.2266 810.351 34.166 810.574 34.0449C810.8 33.9199 810.988 33.75 811.136 33.5352C811.285 33.3203 811.396 33.0742 811.47 32.7969C811.548 32.5156 811.587 32.2168 811.587 31.9004V31.7656C811.587 31.4531 811.548 31.1582 811.47 30.8809C811.396 30.5996 811.283 30.3516 811.13 30.1367C810.982 29.918 810.794 29.7461 810.568 29.6211C810.345 29.4961 810.083 29.4336 809.783 29.4336C809.486 29.4336 809.224 29.4961 808.998 29.6211C808.775 29.7461 808.587 29.918 808.435 30.1367C808.287 30.3516 808.175 30.5996 808.101 30.8809C808.027 31.1582 807.99 31.4531 807.99 31.7656ZM815.115 29.9199V35H814.025V28.6602H815.056L815.115 29.9199ZM814.892 31.5898L814.388 31.5723C814.392 31.1387 814.449 30.7383 814.558 30.3711C814.667 30 814.83 29.6777 815.044 29.4043C815.259 29.1309 815.527 28.9199 815.847 28.7715C816.167 28.6191 816.539 28.543 816.96 28.543C817.257 28.543 817.531 28.5859 817.781 28.6719C818.031 28.7539 818.248 28.8848 818.431 29.0645C818.615 29.2441 818.757 29.4746 818.859 29.7559C818.96 30.0371 819.011 30.377 819.011 30.7754V35H817.927V30.8281C817.927 30.4961 817.871 30.2305 817.757 30.0312C817.648 29.832 817.492 29.6875 817.289 29.5977C817.085 29.5039 816.847 29.457 816.574 29.457C816.253 29.457 815.986 29.5137 815.771 29.627C815.556 29.7402 815.384 29.8965 815.255 30.0957C815.126 30.2949 815.033 30.5234 814.974 30.7812C814.919 31.0352 814.892 31.3047 814.892 31.5898ZM819 30.9922L818.273 31.2148C818.277 30.8672 818.333 30.5332 818.443 30.2129C818.556 29.8926 818.718 29.6074 818.929 29.3574C819.144 29.1074 819.408 28.9102 819.72 28.7656C820.033 28.6172 820.39 28.543 820.792 28.543C821.132 28.543 821.433 28.5879 821.695 28.6777C821.96 28.7676 822.183 28.9062 822.363 29.0938C822.546 29.2773 822.685 29.5137 822.779 29.8027C822.873 30.0918 822.919 30.4355 822.919 30.834V35H821.83V30.8223C821.83 30.4668 821.773 30.1914 821.66 29.9961C821.55 29.7969 821.394 29.6582 821.191 29.5801C820.992 29.498 820.753 29.457 820.476 29.457C820.238 29.457 820.027 29.498 819.843 29.5801C819.66 29.6621 819.505 29.7754 819.38 29.9199C819.255 30.0605 819.16 30.2227 819.093 30.4062C819.031 30.5898 819 30.7852 819 30.9922Z" fill="#94A3B8"/>
<rect width="1520" height="813" transform="translate(20 51)" fill="#E0F2FE"/>
<path d="M20 52.084H274.606V864H20V52.084Z" fill="#BFDBFE"/>
<path d="M50.5527 129.048C50.5527 121.864 57.3922 116.04 65.8291 116.04H228.777C237.214 116.04 244.054 121.864 244.054 129.048V129.048C244.054 136.232 237.214 142.056 228.777 142.056H65.8291C57.3922 142.056 50.5527 136.232 50.5527 129.048V129.048Z" fill="#93C5FD"/>
<path d="M111.658 220.104C111.658 216.512 115.078 213.6 119.296 213.6H246.599C250.818 213.6 254.238 216.512 254.238 220.104V220.104C254.238 223.696 250.818 226.608 246.599 226.608H119.296C115.078 226.608 111.658 223.696 111.658 220.104V220.104Z" fill="white"/>
<path d="M111.658 289.48C111.658 285.888 115.078 282.976 119.296 282.976H207.136C211.354 282.976 214.774 285.888 214.774 289.48V289.48C214.774 293.072 211.354 295.984 207.136 295.984H119.296C115.078 295.984 111.658 293.072 111.658 289.48V289.48Z" fill="white"/>
<path d="M111.658 358.856C111.658 355.264 115.078 352.352 119.296 352.352H228.777C232.995 352.352 236.415 355.264 236.415 358.856V358.856C236.415 362.448 232.995 365.36 228.777 365.36H119.296C115.078 365.36 111.658 362.448 111.658 358.856V358.856Z" fill="white"/>
<path fill-rule="evenodd" clip-rule="evenodd" d="M70.9212 234.196C80.0612 234.196 87.4706 227.887 87.4706 220.104C87.4706 212.321 80.0612 206.012 70.9212 206.012C61.7812 206.012 54.3718 212.321 54.3718 220.104C54.3718 227.887 61.7812 234.196 70.9212 234.196ZM70.9212 237.448C82.1704 237.448 91.2897 229.683 91.2897 220.104C91.2897 210.525 82.1704 202.76 70.9212 202.76C59.672 202.76 50.5527 210.525 50.5527 220.104C50.5527 229.683 59.672 237.448 70.9212 237.448Z" fill="#93C5FD"/>
<path d="M356.081 129.048C356.081 124.259 360.64 120.376 366.265 120.376H513.937C519.562 120.376 524.121 124.259 524.121 129.048V129.048C524.121 133.837 519.562 137.72 513.937 137.72H366.265C360.64 137.72 356.081 133.837 356.081 129.048V129.048Z" fill="#BFDBFE"/>
<path fill-rule="evenodd" clip-rule="evenodd" d="M626.6 478.703C626.674 472.521 632.443 467.256 639.857 467.256C644.408 467.256 647.755 469.174 649.891 470.98C650.486 471.483 650.997 471.984 651.424 472.447C651.851 471.984 652.362 471.483 652.957 470.98C655.093 469.174 658.44 467.256 662.991 467.256C670.405 467.256 676.174 472.521 676.248 478.703V478.704C676.389 490.763 665.01 499.106 653.572 505.717C652.939 506.084 652.19 506.28 651.424 506.28C650.658 506.28 649.909 506.084 649.276 505.717C637.837 499.106 626.457 490.763 626.6 478.704L626.6 478.703ZM653.13 476.117C653.13 476.116 653.131 476.115 653.132 476.113C653.135 476.107 653.143 476.096 653.153 476.079C653.175 476.044 653.211 475.988 653.26 475.914C653.36 475.765 653.517 475.544 653.729 475.274C654.155 474.731 654.796 474.007 655.647 473.288C657.358 471.842 659.794 470.508 662.991 470.508C668.17 470.508 672.374 474.214 672.429 478.736C672.548 488.898 662.964 496.358 651.426 503.027L651.424 503.028L651.422 503.027C639.883 496.358 630.299 488.898 630.419 478.737" fill="white"/>
<path d="M356.081 486.768C356.081 481.979 360.64 478.096 366.265 478.096H435.009C440.633 478.096 445.193 481.979 445.193 486.768V486.768C445.193 491.558 440.633 495.44 435.009 495.44H366.265C360.64 495.44 356.081 491.558 356.081 486.768V486.768Z" fill="#BFDBFE"/>
<path d="M465.562 486.768C465.562 481.979 470.121 478.096 475.746 478.096H590.319C595.944 478.096 600.503 481.979 600.503 486.768V486.768C600.503 491.558 595.944 495.44 590.319 495.44H475.746C470.121 495.44 465.562 491.558 465.562 486.768V486.768Z" fill="#BFDBFE"/>
<path d="M356.081 571.32C356.081 567.728 359.5 564.816 363.719 564.816H470.654C474.872 564.816 478.292 567.728 478.292 571.32V571.32C478.292 574.912 474.872 577.824 470.654 577.824H363.719C359.5 577.824 356.081 574.912 356.081 571.32V571.32Z" fill="white"/>
<path d="M356.081 601.672C356.081 598.08 359.5 595.168 363.719 595.168H527.94C532.159 595.168 535.578 598.08 535.578 601.672V601.672C535.578 605.264 532.159 608.176 527.94 608.176H363.719C359.5 608.176 356.081 605.264 356.081 601.672V601.672Z" fill="white"/>
<path d="M498.66 571.32C498.66 567.728 502.08 564.816 506.298 564.816H633.601C637.82 564.816 641.24 567.728 641.24 571.32V571.32C641.24 574.912 637.82 577.824 633.601 577.824H506.298C502.08 577.824 498.66 574.912 498.66 571.32V571.32Z" fill="white"/>
<path d="M356.081 213.6C356.081 210.008 359.5 207.096 363.719 207.096H470.654C474.872 207.096 478.292 210.008 478.292 213.6V213.6C478.292 217.192 474.872 220.104 470.654 220.104H363.719C359.5 220.104 356.081 217.192 356.081 213.6V213.6Z" fill="white"/>
<path d="M356.081 243.952C356.081 240.36 359.5 237.448 363.719 237.448H627.237C631.455 237.448 634.875 240.36 634.875 243.952V243.952C634.875 247.544 631.455 250.456 627.237 250.456H363.719C359.5 250.456 356.081 247.544 356.081 243.952V243.952Z" fill="white"/>
<path d="M498.66 213.6C498.66 210.008 502.08 207.096 506.298 207.096H796.549C800.768 207.096 804.188 210.008 804.188 213.6V213.6C804.188 217.192 800.768 220.104 796.549 220.104H506.298C502.08 220.104 498.66 217.192 498.66 213.6V213.6Z" fill="white"/>
<path fill-rule="evenodd" clip-rule="evenodd" d="M88.7436 275.388H55.6448V303.572H88.7436V275.388ZM51.8257 272.136V306.824H92.5627V272.136H51.8257Z" fill="#60A5FA"/>
<g clip-path="url(#clip1_300_253)">
<rect x="902.211" y="129.048" width="254.606" height="297.016" rx="20" fill="white"/>
<path d="M1071.81 426.32C1071.81 501.479 1000.85 562.407 913.316 562.407C825.781 562.407 754.82 501.479 754.82 426.32C754.82 351.162 825.781 290.233 913.316 290.233C1000.85 290.233 1071.81 351.162 1071.81 426.32Z" fill="#FBBF24"/>
<path fill-rule="evenodd" clip-rule="evenodd" d="M1192.7 245.257L1109.88 174.738L1039.36 257.554L1122.18 328.073L1192.7 245.257ZM1109.35 168.072L1032.7 258.089L1122.71 334.739L1199.36 244.722L1109.35 168.072Z" fill="#BFDBFE"/>
</g>
<path d="M72.1942 343.68L92.5627 373.721H51.8257L72.1942 343.68Z" fill="#93C5FD"/>
<rect x="1197.55" y="129.048" width="254.606" height="218.968" rx="20" fill="white"/>
<path fill-rule="evenodd" clip-rule="evenodd" d="M1312.09 292.316C1337.47 292.316 1357.87 274.956 1357.87 253.722C1357.87 232.489 1337.47 215.129 1312.09 215.129C1286.7 215.129 1266.3 232.489 1266.3 253.722C1266.3 274.956 1286.7 292.316 1312.09 292.316ZM1312.09 303.156C1344.41 303.156 1370.6 281.024 1370.6 253.722C1370.6 226.421 1344.41 204.289 1312.09 204.289C1279.77 204.289 1253.57 226.421 1253.57 253.722C1253.57 281.024 1279.77 303.156 1312.09 303.156Z" fill="#BFDBFE"/>
<path d="M1338.68 238.075L1349.6 178.66L1395.6 217.825L1338.68 238.075Z" fill="#FBBF24"/>
<g clip-path="url(#clip2_300_253)">
<rect x="902.211" y="460.752" width="254.606" height="331.704" rx="20" fill="white"/>
<path fill-rule="evenodd" clip-rule="evenodd" d="M1140.9 834.732C1212.27 834.732 1270.12 785.472 1270.12 724.706C1270.12 663.94 1212.27 614.68 1140.9 614.68C1069.54 614.68 1011.69 663.94 1011.69 724.706C1011.69 785.472 1069.54 834.732 1140.9 834.732ZM1140.9 845.572C1219.3 845.572 1282.85 791.458 1282.85 724.706C1282.85 657.953 1219.3 603.84 1140.9 603.84C1062.51 603.84 998.961 657.953 998.961 724.706C998.961 791.458 1062.51 845.572 1140.9 845.572Z" fill="#FBBF24"/>
<path d="M1035.88 559.641C1035.88 580.132 1016.22 596.743 991.96 596.743C967.704 596.743 948.04 580.132 948.04 559.641C948.04 539.151 967.704 522.54 991.96 522.54C1016.22 522.54 1035.88 539.151 1035.88 559.641Z" fill="#BFDBFE"/>
<path fill-rule="evenodd" clip-rule="evenodd" d="M991.96 593.491C1014.14 593.491 1032.06 578.312 1032.06 559.641C1032.06 540.971 1014.14 525.792 991.96 525.792C969.784 525.792 951.859 540.971 951.859 559.641C951.859 578.312 969.784 593.491 991.96 593.491ZM991.96 596.743C1016.22 596.743 1035.88 580.132 1035.88 559.641C1035.88 539.151 1016.22 522.54 991.96 522.54C967.704 522.54 948.04 539.151 948.04 559.641C948.04 580.132 967.704 596.743 991.96 596.743Z" fill="#BFDBFE"/>
</g>
<g clip-path="url(#clip3_300_253)">
<rect x="1197.55" y="382.704" width="254.606" height="370.728" rx="20" fill="white"/>
<path d="M1510.72 649.91C1510.72 676.551 1485.64 698.148 1454.71 698.148C1423.77 698.148 1398.69 676.551 1398.69 649.91C1398.69 623.269 1423.77 601.672 1454.71 601.672C1485.64 601.672 1510.72 623.269 1510.72 649.91Z" fill="white"/>
<path fill-rule="evenodd" clip-rule="evenodd" d="M1454.71 694.896C1483.49 694.896 1506.9 674.79 1506.9 649.91C1506.9 625.03 1483.49 604.924 1454.71 604.924C1425.92 604.924 1402.51 625.03 1402.51 649.91C1402.51 674.79 1425.92 694.896 1454.71 694.896ZM1454.71 698.148C1485.64 698.148 1510.72 676.551 1510.72 649.91C1510.72 623.269 1485.64 601.672 1454.71 601.672C1423.77 601.672 1398.69 623.269 1398.69 649.91C1398.69 676.551 1423.77 698.148 1454.71 698.148Z" fill="#BFDBFE"/>
<path d="M1408.88 513.326C1408.88 548.947 1375.25 577.824 1333.77 577.824C1292.29 577.824 1258.66 548.947 1258.66 513.326C1258.66 477.705 1292.29 448.828 1333.77 448.828C1375.25 448.828 1408.88 477.705 1408.88 513.326Z" fill="#BFDBFE"/>
<path d="M1244.66 637.444L1248.25 646.243L1259.19 646.433L1250.47 652.06L1253.64 660.976L1244.66 655.656L1235.68 660.976L1238.85 652.06L1230.13 646.433L1241.06 646.243L1244.66 637.444Z" fill="#FBBF24"/>
<path d="M1296.85 637.444L1300.44 646.243L1311.38 646.433L1302.66 652.06L1305.83 660.976L1296.85 655.656L1287.87 660.976L1291.04 652.06L1282.32 646.433L1293.26 646.243L1296.85 637.444Z" fill="#FBBF24"/>
<path d="M1349.05 637.444L1352.64 646.243L1363.57 646.433L1354.86 652.06L1358.02 660.976L1349.05 655.656L1340.07 660.976L1343.23 652.06L1334.52 646.433L1345.45 646.243L1349.05 637.444Z" fill="#FBBF24"/>
<path d="M1401.24 637.444L1404.83 646.243L1415.77 646.433L1407.05 652.06L1410.22 660.976L1401.24 655.656L1392.26 660.976L1395.43 652.06L1386.71 646.433L1397.65 646.243L1401.24 637.444Z" fill="#FBBF24"/>
<path d="M1453.43 637.444L1457.03 646.243L1467.96 646.433L1459.25 652.06L1462.41 660.976L1453.43 655.656L1444.45 660.976L1447.62 652.06L1438.91 646.433L1449.84 646.243L1453.43 637.444Z" fill="#FBBF24"/>
</g>
</g>
<rect x="22.5" y="12.5" width="1515" height="849" rx="17.5" stroke="white" stroke-width="5"/>
</g>
<defs>
<filter id="filter0_dd_300_253" x="0" y="0" width="1560" height="904" filterUnits="userSpaceOnUse" color-interpolation-filters="sRGB">
<feFlood flood-opacity="0" result="BackgroundImageFix"/>
<feColorMatrix in="SourceAlpha" type="matrix" values="0 0 0 0 0 0 0 0 0 0 0 0 0 0 0 0 0 0 127 0" result="hardAlpha"/>
<feOffset/>
<feGaussianBlur stdDeviation="5"/>
<feColorMatrix type="matrix" values="0 0 0 0 0 0 0 0 0 0 0 0 0 0 0 0 0 0 0.07 0"/>
<feBlend mode="normal" in2="BackgroundImageFix" result="effect1_dropShadow_300_253"/>
<feColorMatrix in="SourceAlpha" type="matrix" values="0 0 0 0 0 0 0 0 0 0 0 0 0 0 0 0 0 0 127 0" result="hardAlpha"/>
<feMorphology radius="5" operator="erode" in="SourceAlpha" result="effect2_dropShadow_300_253"/>
<feOffset dy="20"/>
<feGaussianBlur stdDeviation="12.5"/>
<feColorMatrix type="matrix" values="0 0 0 0 0 0 0 0 0 0 0 0 0 0 0 0 0 0 0.1 0"/>
<feBlend mode="normal" in2="effect1_dropShadow_300_253" result="effect2_dropShadow_300_253"/>
<feBlend mode="normal" in="SourceGraphic" in2="effect2_dropShadow_300_253" result="shape"/>
</filter>
<clipPath id="clip0_300_253">
<rect x="20" y="10" width="1520" height="854" rx="20" fill="white"/>
</clipPath>
<clipPath id="clip1_300_253">
<rect x="902.211" y="129.048" width="254.606" height="297.016" rx="20" fill="white"/>
</clipPath>
<clipPath id="clip2_300_253">
<rect x="902.211" y="460.752" width="254.606" height="331.704" rx="20" fill="white"/>
</clipPath>
<clipPath id="clip3_300_253">
<rect x="1197.55" y="382.704" width="254.606" height="370.728" rx="20" fill="white"/>
</clipPath>
</defs>
</svg>
