<svg width="271" height="541" viewBox="0 0 271 541" fill="none" xmlns="http://www.w3.org/2000/svg">
<g filter="url(#filter0_dd_297_138)">
<g clip-path="url(#clip0_297_138)">
<path d="M20 10H248V501H20V10Z" fill="#E0F2FE"/>
<path d="M186.766 358.937C186.766 376.292 172.766 390.361 155.497 390.361C138.228 390.361 124.229 376.292 124.229 358.937C124.229 341.582 138.228 327.513 155.497 327.513C172.766 327.513 186.766 341.582 186.766 358.937Z" fill="white"/>
<path fill-rule="evenodd" clip-rule="evenodd" d="M155.497 388.397C171.687 388.397 184.811 375.208 184.811 358.937C184.811 342.667 171.687 329.477 155.497 329.477C139.307 329.477 126.183 342.667 126.183 358.937C126.183 375.208 139.307 388.397 155.497 388.397ZM155.497 390.361C172.766 390.361 186.766 376.292 186.766 358.937C186.766 341.582 172.766 327.513 155.497 327.513C138.228 327.513 124.229 341.582 124.229 358.937C124.229 376.292 138.228 390.361 155.497 390.361Z" fill="#BAE6FD"/>
<path d="M270.148 358.937C270.148 376.292 256.149 390.361 238.88 390.361C221.611 390.361 207.611 376.292 207.611 358.937C207.611 341.582 221.611 327.513 238.88 327.513C256.149 327.513 270.148 341.582 270.148 358.937Z" fill="#BAE6FD"/>
<path fill-rule="evenodd" clip-rule="evenodd" d="M238.88 388.397C255.07 388.397 268.194 375.208 268.194 358.937C268.194 342.667 255.07 329.477 238.88 329.477C222.69 329.477 209.566 342.667 209.566 358.937C209.566 375.208 222.69 388.397 238.88 388.397ZM238.88 390.361C256.149 390.361 270.148 376.292 270.148 358.937C270.148 341.582 256.149 327.513 238.88 327.513C221.611 327.513 207.611 341.582 207.611 358.937C207.611 376.292 221.611 390.361 238.88 390.361Z" fill="white"/>
<path d="M103.383 358.937C103.383 376.292 89.3834 390.361 72.1143 390.361C54.8451 390.361 40.8457 376.292 40.8457 358.937C40.8457 341.582 54.8451 327.513 72.1143 327.513C89.3834 327.513 103.383 341.582 103.383 358.937Z" fill="#FBBF24"/>
<path fill-rule="evenodd" clip-rule="evenodd" d="M72.1143 388.397C88.3041 388.397 101.429 375.208 101.429 358.937C101.429 342.667 88.3041 329.477 72.1143 329.477C55.9244 329.477 42.8 342.667 42.8 358.937C42.8 375.208 55.9244 388.397 72.1143 388.397ZM72.1143 390.361C89.3834 390.361 103.383 376.292 103.383 358.937C103.383 341.582 89.3834 327.513 72.1143 327.513C54.8451 327.513 40.8457 341.582 40.8457 358.937C40.8457 376.292 54.8451 390.361 72.1143 390.361Z" fill="white"/>
<path d="M40.8457 306.564C40.8457 303.672 43.1789 301.327 46.0571 301.327H91.6571C94.5353 301.327 96.8686 303.672 96.8686 306.564C96.8686 309.457 94.5353 311.801 91.6571 311.801H46.0571C43.1789 311.801 40.8457 309.457 40.8457 306.564Z" fill="#BAE6FD"/>
<path d="M107.292 306.564C107.292 303.672 109.625 301.327 112.503 301.327H133.349C136.227 301.327 138.56 303.672 138.56 306.564C138.56 309.457 136.227 311.801 133.349 311.801H112.503C109.625 311.801 107.292 309.457 107.292 306.564Z" fill="#BAE6FD"/>
<path fill-rule="evenodd" clip-rule="evenodd" d="M198.817 198.256C198.855 194.522 201.807 191.343 205.601 191.343C207.93 191.343 209.643 192.501 210.736 193.592C211.04 193.895 211.301 194.198 211.52 194.478C211.739 194.198 212 193.895 212.304 193.592C213.397 192.501 215.11 191.343 217.439 191.343C221.233 191.343 224.185 194.522 224.223 198.256V198.256C224.295 205.539 218.472 210.578 212.619 214.57C212.295 214.792 211.912 214.911 211.52 214.911C211.128 214.911 210.745 214.792 210.421 214.57C204.567 210.578 198.744 205.539 198.817 198.256L198.817 198.256ZM212.393 196.694C212.393 196.694 212.393 196.693 212.394 196.692C212.396 196.688 212.399 196.681 212.405 196.671C212.416 196.65 212.434 196.616 212.46 196.572C212.511 196.482 212.591 196.348 212.699 196.185C212.918 195.857 213.246 195.42 213.681 194.985C214.556 194.112 215.803 193.307 217.439 193.307C220.089 193.307 222.241 195.545 222.269 198.276C222.329 204.413 217.425 208.918 211.521 212.946L211.52 212.947L211.519 212.946C205.614 208.918 200.71 204.413 200.771 198.276" fill="white"/>
<path d="M40.8457 203.127C40.8457 200.234 43.1789 197.889 46.0571 197.889H81.2343C84.1125 197.889 86.4457 200.234 86.4457 203.127C86.4457 206.019 84.1125 208.364 81.2343 208.364H46.0571C43.1789 208.364 40.8457 206.019 40.8457 203.127Z" fill="#BAE6FD"/>
<path d="M96.8687 203.127C96.8687 200.234 99.2019 197.889 102.08 197.889H160.709C163.587 197.889 165.92 200.234 165.92 203.127C165.92 206.019 163.587 208.364 160.709 208.364H102.08C99.2019 208.364 96.8687 206.019 96.8687 203.127Z" fill="#BAE6FD"/>
<path d="M40.8457 228.004C40.8457 225.835 42.5956 224.076 44.7543 224.076H99.4743C101.633 224.076 103.383 225.835 103.383 228.004C103.383 230.173 101.633 231.932 99.4743 231.932H44.7543C42.5956 231.932 40.8457 230.173 40.8457 228.004Z" fill="white"/>
<path d="M40.8457 246.334C40.8457 244.165 42.5956 242.406 44.7543 242.406H128.789C130.947 242.406 132.697 244.165 132.697 246.334C132.697 248.504 130.947 250.262 128.789 250.262H44.7543C42.5956 250.262 40.8457 248.504 40.8457 246.334Z" fill="white"/>
<path d="M113.806 228.004C113.806 225.835 115.556 224.076 117.714 224.076H182.857C185.016 224.076 186.766 225.835 186.766 228.004C186.766 230.173 185.016 231.932 182.857 231.932H117.714C115.556 231.932 113.806 230.173 113.806 228.004Z" fill="white"/>
<path d="M40.8457 51.2439C40.8457 44.0127 46.6788 38.1506 53.8743 38.1506H214.126C221.321 38.1506 227.155 44.0127 227.155 51.2439V153.372C227.155 160.604 221.321 166.466 214.126 166.466H53.8743C46.6788 166.466 40.8457 160.604 40.8457 153.372V51.2439Z" fill="white"/>
<mask id="mask0_297_138" style="mask-type:alpha" maskUnits="userSpaceOnUse" x="40" y="38" width="188" height="129">
<path d="M40.8457 51.2439C40.8457 44.0127 46.6788 38.1506 53.8743 38.1506H214.126C221.321 38.1506 227.155 44.0127 227.155 51.2439V153.372C227.155 160.604 221.321 166.466 214.126 166.466H53.8743C46.6788 166.466 40.8457 160.604 40.8457 153.372V51.2439Z" fill="white"/>
</mask>
<g mask="url(#mask0_297_138)">
<path d="M40.8457 38.1506H155.497L40.8457 148.135V38.1506Z" fill="#BAE6FD"/>
<path d="M257.12 153.372C257.12 175.789 239.037 193.961 216.731 193.961C194.425 193.961 176.343 175.789 176.343 153.372C176.343 130.955 194.425 112.783 216.731 112.783C239.037 112.783 257.12 130.955 257.12 153.372Z" fill="#FBBF24"/>
<path d="M216.731 118.675C216.731 141.453 198.357 159.919 175.691 159.919C153.026 159.919 134.651 141.453 134.651 118.675C134.651 95.8963 153.026 77.4307 175.691 77.4307C198.357 77.4307 216.731 95.8963 216.731 118.675Z" fill="white"/>
<path fill-rule="evenodd" clip-rule="evenodd" d="M175.691 153.372C194.759 153.372 210.217 137.837 210.217 118.675C210.217 99.5119 194.759 83.9773 175.691 83.9773C156.623 83.9773 141.166 99.5119 141.166 118.675C141.166 137.837 156.623 153.372 175.691 153.372ZM175.691 159.919C198.357 159.919 216.731 141.453 216.731 118.675C216.731 95.8963 198.357 77.4307 175.691 77.4307C153.026 77.4307 134.651 95.8963 134.651 118.675C134.651 141.453 153.026 159.919 175.691 159.919Z" fill="#E0F2FE"/>
</g>
<mask id="path-24-inside-1_297_138" fill="white">
<path d="M20 438.152H248V501H20V438.152Z"/>
</mask>
<path d="M20 441.152H248V435.152H20V441.152Z" fill="white" mask="url(#path-24-inside-1_297_138)"/>
<path fill-rule="evenodd" clip-rule="evenodd" d="M51.6331 456.811C52.0957 456.829 52.4818 457.172 52.5579 457.631L55.7539 476.902L58.4717 467.342C58.5894 466.928 58.9617 466.64 59.39 466.63C59.8183 466.621 60.2027 466.893 60.3382 467.302L62.0698 472.522H65.2741C65.8137 472.522 66.2512 472.962 66.2512 473.504C66.2512 474.046 65.8137 474.486 65.2741 474.486H61.3655C60.9449 474.486 60.5715 474.216 60.4385 473.815L59.4831 470.934L56.4422 481.63C56.3167 482.071 55.9035 482.366 55.4474 482.34C54.9913 482.315 54.6139 481.974 54.5388 481.521L51.4026 462.611L48.6335 473.742C48.5247 474.179 48.1339 474.486 47.6855 474.486H43.7769C43.2373 474.486 42.7998 474.046 42.7998 473.504C42.7998 472.962 43.2373 472.522 43.7769 472.522H46.9226L50.6461 457.554C50.7584 457.103 51.1705 456.792 51.6331 456.811Z" fill="white"/>
<path fill-rule="evenodd" clip-rule="evenodd" d="M67.2288 472.522C66.6891 472.522 66.2517 472.962 66.2517 473.504C66.2517 474.046 66.6891 474.486 67.2288 474.486C67.7685 474.486 68.2059 474.046 68.2059 473.504C68.2059 472.962 67.7685 472.522 67.2288 472.522ZM64.2974 473.504C64.2974 471.877 65.6098 470.558 67.2288 470.558C68.8478 470.558 70.1602 471.877 70.1602 473.504C70.1602 475.131 68.8478 476.45 67.2288 476.45C65.6098 476.45 64.2974 475.131 64.2974 473.504Z" fill="white"/>
<path fill-rule="evenodd" clip-rule="evenodd" d="M125.995 458.6C127.734 457.433 129.778 456.81 131.868 456.81V457.792V456.81C134.672 456.81 137.36 457.93 139.343 459.922C141.325 461.914 142.439 464.616 142.439 467.433V467.433C142.439 469.535 141.819 471.588 140.658 473.335C139.496 475.083 137.845 476.444 135.914 477.248C133.982 478.052 131.856 478.263 129.806 477.853C127.755 477.443 125.872 476.431 124.394 474.945C122.915 473.46 121.908 471.567 121.5 469.506C121.093 467.445 121.302 465.309 122.102 463.368C122.902 461.427 124.257 459.768 125.995 458.6ZM131.868 458.774C130.164 458.774 128.498 459.282 127.081 460.233C125.664 461.185 124.56 462.537 123.908 464.12C123.255 465.702 123.085 467.443 123.417 469.123C123.75 470.803 124.57 472.346 125.775 473.557C126.98 474.768 128.516 475.592 130.187 475.926C131.859 476.261 133.591 476.089 135.166 475.434C136.74 474.778 138.086 473.668 139.033 472.244C139.979 470.82 140.485 469.146 140.485 467.434" fill="white"/>
<path fill-rule="evenodd" clip-rule="evenodd" d="M138.335 473.932C138.716 473.549 139.335 473.549 139.716 473.932L146.417 480.666C146.798 481.049 146.798 481.671 146.417 482.054C146.035 482.438 145.416 482.438 145.035 482.054L138.335 475.321C137.953 474.937 137.953 474.316 138.335 473.932Z" fill="white"/>
<path fill-rule="evenodd" clip-rule="evenodd" d="M199.794 463.684C199.794 463.142 200.232 462.702 200.772 462.702H222.269C222.808 462.702 223.246 463.142 223.246 463.684C223.246 464.226 222.808 464.666 222.269 464.666H200.772C200.232 464.666 199.794 464.226 199.794 463.684Z" fill="white"/>
<path fill-rule="evenodd" clip-rule="evenodd" d="M199.794 469.576C199.794 469.034 200.232 468.594 200.772 468.594H222.269C222.808 468.594 223.246 469.034 223.246 469.576C223.246 470.118 222.808 470.558 222.269 470.558H200.772C200.232 470.558 199.794 470.118 199.794 469.576Z" fill="white"/>
<path fill-rule="evenodd" clip-rule="evenodd" d="M199.794 475.468C199.794 474.926 200.232 474.486 200.772 474.486H222.269C222.808 474.486 223.246 474.926 223.246 475.468C223.246 476.01 222.808 476.45 222.269 476.45H200.772C200.232 476.45 199.794 476.01 199.794 475.468Z" fill="white"/>
</g>
<rect x="22.5" y="12.5" width="223" height="486" rx="17.5" stroke="white" stroke-width="5"/>
</g>
<path d="M271 359.07C271 376.467 256.897 390.57 239.5 390.57C222.103 390.57 208 376.467 208 359.07C208 341.673 222.103 327.57 239.5 327.57C256.897 327.57 271 341.673 271 359.07Z" fill="#BAE6FD"/>
<path fill-rule="evenodd" clip-rule="evenodd" d="M239.5 388.602C255.81 388.602 269.031 375.38 269.031 359.07C269.031 342.761 255.81 329.539 239.5 329.539C223.19 329.539 209.969 342.761 209.969 359.07C209.969 375.38 223.19 388.602 239.5 388.602ZM239.5 390.57C256.897 390.57 271 376.467 271 359.07C271 341.673 256.897 327.57 239.5 327.57C222.103 327.57 208 341.673 208 359.07C208 376.467 222.103 390.57 239.5 390.57Z" fill="white"/>
<defs>
<filter id="filter0_dd_297_138" x="0" y="0" width="268" height="541" filterUnits="userSpaceOnUse" color-interpolation-filters="sRGB">
<feFlood flood-opacity="0" result="BackgroundImageFix"/>
<feColorMatrix in="SourceAlpha" type="matrix" values="0 0 0 0 0 0 0 0 0 0 0 0 0 0 0 0 0 0 127 0" result="hardAlpha"/>
<feOffset/>
<feGaussianBlur stdDeviation="5"/>
<feColorMatrix type="matrix" values="0 0 0 0 0 0 0 0 0 0 0 0 0 0 0 0 0 0 0.07 0"/>
<feBlend mode="normal" in2="BackgroundImageFix" result="effect1_dropShadow_297_138"/>
<feColorMatrix in="SourceAlpha" type="matrix" values="0 0 0 0 0 0 0 0 0 0 0 0 0 0 0 0 0 0 127 0" result="hardAlpha"/>
<feMorphology radius="5" operator="erode" in="SourceAlpha" result="effect2_dropShadow_297_138"/>
<feOffset dy="20"/>
<feGaussianBlur stdDeviation="12.5"/>
<feColorMatrix type="matrix" values="0 0 0 0 0 0 0 0 0 0 0 0 0 0 0 0 0 0 0.1 0"/>
<feBlend mode="normal" in2="effect1_dropShadow_297_138" result="effect2_dropShadow_297_138"/>
<feBlend mode="normal" in="SourceGraphic" in2="effect2_dropShadow_297_138" result="shape"/>
</filter>
<clipPath id="clip0_297_138">
<rect x="20" y="10" width="228" height="491" rx="20" fill="white"/>
</clipPath>
</defs>
</svg>
